<svg width="1440" height="1461" viewBox="0 0 1440 1461" fill="none" xmlns="http://www.w3.org/2000/svg">
<path d="M-464 802.205C103.946 1021.41 671.891 1240.62 1239.84 1459.82" stroke="url(#paint0_linear_312_639)" stroke-opacity="0.05" stroke-width="2.16035" stroke-miterlimit="10"/>
<path d="M-454.244 776.927C-166.723 888.114 122.473 994.541 411.969 1100.4C537.232 1146.19 662.206 1195.26 784.788 1247.96C938.238 1313.92 1096.15 1368.53 1249.55 1434.53" stroke="url(#paint1_linear_312_639)" stroke-opacity="0.05" stroke-width="2.16035" stroke-miterlimit="10"/>
<path d="M-444.631 752.021C-363.143 783.472 -281.978 815.833 -200.331 846.839C-127.365 874.552 -51.4436 894.115 21.912 920.749C158.558 970.366 292.912 1025.85 429.736 1074.97C551.183 1118.57 675.688 1157.94 791.499 1215.89C858.97 1249.74 927.149 1279.6 996.22 1309.48C1082.43 1346.78 1173.54 1371.03 1259.21 1409.64" stroke="url(#paint2_linear_312_639)" stroke-opacity="0.05" stroke-width="2.16035" stroke-miterlimit="10"/>
<path d="M-435.15 727.457C-354.833 758.456 -275.051 791.474 -193.951 820.375C-117.736 847.527 -37.3898 862.669 39.3754 888.218C177.705 934.25 305.435 1004.57 442.41 1053.69C562.92 1096.96 689.489 1119.5 801.134 1186.13C866.393 1225.08 930.489 1260.59 999.823 1290.5C1087.25 1328.14 1181.94 1345.7 1268.69 1385.07" stroke="url(#paint3_linear_312_639)" stroke-opacity="0.05" stroke-width="2.16035" stroke-miterlimit="10"/>
<path d="M-425.853 703.368C-346.991 733.806 -268.743 767.559 -188.295 793.71C-107.847 819.861 -22.5957 830.221 58.4158 854.208C132.058 876.014 201.874 904.737 268.076 944.693C327.405 980.513 386.118 1012.5 450.779 1036.06C507.461 1056.68 564.907 1064.76 624.884 1074.78C693.525 1086.22 756.633 1117.6 813.189 1158.6C875.431 1203.74 934.041 1246.56 1004.07 1275.9C1092.4 1312.92 1190.31 1322.09 1277.98 1360.99" stroke="url(#paint4_linear_312_639)" stroke-opacity="0.05" stroke-width="2.16035" stroke-miterlimit="10"/>
<path d="M-416.687 679.621C-339.53 709.401 -262.807 743.795 -183.209 766.866C-98.1635 791.531 -7.32817 797.039 78.5233 819.088C152.277 837.913 221.042 871.062 282.836 917.581C338.101 958.859 392.021 997.491 455.634 1021.22C514.542 1043.2 575.838 1042.36 639.429 1047.09C711.61 1052.47 772.698 1084.57 827.184 1132.87C885.561 1184.68 937.937 1236.44 1008.94 1264.68C1098.05 1300.15 1198.63 1299.8 1287.14 1337.26" stroke="url(#paint5_linear_312_639)" stroke-opacity="0.05" stroke-width="2.16035" stroke-miterlimit="10"/>
<path d="M-407.665 656.245C-332.29 685.22 -257.115 720.208 -178.532 740.095C-88.3533 763.014 8.16461 763.591 99.1779 783.397C175.55 800.031 238.129 836.129 296.793 891.036C347.013 938.057 395.351 984.39 457.746 1008.53C519.462 1032.35 586.723 1021.52 654.315 1020.75C731.311 1019.88 789.848 1051.38 842.632 1108.7C896.359 1167.03 942.373 1229.17 1014.38 1255.99C1104.16 1289.31 1206.89 1278.51 1296.17 1313.86" stroke="url(#paint6_linear_312_639)" stroke-opacity="0.05" stroke-width="2.16035" stroke-miterlimit="10"/>
<path d="M-398.787 633.244C-325.298 661.432 -251.505 696.55 -174.198 713.544C-78.7363 734.54 23.309 730.165 119.763 747.64C198.223 761.859 255.873 801.286 309.814 865.085C354.316 917.726 396.816 972.562 457.807 997.312C522.262 1023.48 597.736 1002.07 669.177 995.627C751.677 988.178 808.043 1018.29 858.93 1085.81C907.389 1150.11 947.195 1224 1020.28 1248.93C1110.66 1279.76 1215.03 1257.99 1305.03 1290.85" stroke="url(#paint7_linear_312_639)" stroke-opacity="0.05" stroke-width="2.16035" stroke-miterlimit="10"/>
<path d="M-390.054 610.616C-318.426 638.028 -245.961 673.062 -169.915 687.442C-69.2651 706.478 38.2474 697.343 139.922 712.422C220.936 724.426 273.351 766.712 322.045 839.806C360.557 897.611 397.071 961.3 456.738 986.945C523.82 1015.74 609.065 983.005 684.015 971.589C723.237 965.705 763.752 961.649 797.289 979.121C830.108 996.238 854.593 1029.52 875.742 1064.05C918.413 1133.55 952.816 1219.83 1026.67 1242.75C1117.6 1270.96 1223.06 1238.06 1313.78 1268.29" stroke="url(#paint8_linear_312_639)" stroke-opacity="0.05" stroke-width="2.16035" stroke-miterlimit="10"/>
<path d="M-381.413 588.401C-311.505 615.09 -240.317 649.807 -165.628 661.927C-60.1408 679.102 52.3961 665.367 158.94 678.149C242.675 688.177 290.133 733.02 333.26 815.149C365.955 877.423 396.52 949.903 455.138 976.646C524.498 1008.28 620.362 964.196 698.345 948.407C739.198 940.128 783.863 932.013 818.596 951.001C851.152 968.797 873.701 1006.08 892.441 1042.94C929.797 1116.46 958.645 1215.33 1033.43 1236.36C1124.9 1262.06 1231 1218.23 1322.39 1246.01" stroke="url(#paint9_linear_312_639)" stroke-opacity="0.05" stroke-width="2.16035" stroke-miterlimit="10"/>
<path d="M-372.968 566.56C-304.708 592.554 -234.609 626.851 -161.27 637.22C-51.4786 652.718 65.5927 634.703 176.414 645.348C218.607 649.415 257.08 657.198 287.188 690.25C311.717 717.186 328.157 754.195 343.539 791.127C371.07 857.166 395.911 937.82 453.901 965.765C525.196 1000.13 631.51 945.39 712.085 925.916C754.338 915.699 803.03 903.77 838.852 924.096C871.352 942.495 892.013 983.397 908.552 1022.3C941.188 1098.99 964.729 1209.54 1040.57 1228.99C1132.5 1252.55 1238.91 1198.33 1330.9 1224.09" stroke="url(#paint10_linear_312_639)" stroke-opacity="0.05" stroke-width="2.16035" stroke-miterlimit="10"/>
<path d="M-364.663 545.074C-297.828 570.499 -228.698 604.383 -156.634 613.44C-43.4146 627.665 77.3016 605.631 191.66 614.616C234.277 617.968 272.999 624.793 301.947 660.286C325.391 689.185 339.614 728.734 352.719 767.832C375.941 836.97 395.75 924.602 453.643 953.681C490.636 972.273 540.406 958.398 583.016 946.835C630.288 934.007 677.595 916.859 724.868 903.992C768.307 892.183 820.313 877.2 857.137 898.732C889.682 917.754 908.719 961.387 923.463 1002.02C952.197 1081.42 970.795 1201.53 1047.88 1219.85C1140.24 1241.83 1246.72 1178.15 1339.2 1202.62" stroke="url(#paint11_linear_312_639)" stroke-opacity="0.05" stroke-width="2.16035" stroke-miterlimit="10"/>
<path d="M-356.508 523.979C-290.868 548.942 -222.502 582.551 -151.586 590.813C-35.987 604.298 87.4387 578.625 204.247 586.37C246.877 589.16 286.074 595.564 314.06 632.423C336.971 662.599 349.441 704.399 360.872 745.194C380.998 816.963 396.814 909.69 455.192 939.697C493.075 959.12 544.893 943.284 588.567 930.512C637.876 916.069 687.154 896.988 736.476 882.512C780.945 869.441 835.058 852.52 872.804 874.798C905.631 894.182 923.375 939.58 936.722 981.679C962.685 1063.51 976.834 1190 1055.34 1208.11C1147.95 1229.46 1254.54 1157.42 1347.3 1181.66" stroke="url(#paint12_linear_312_639)" stroke-opacity="0.05" stroke-width="2.16035" stroke-miterlimit="10"/>
<path d="M-348.484 503.263C-283.787 527.922 -215.904 561.48 -145.987 569.513C-29.337 582.916 95.6525 554.001 213.606 561.173C255.716 563.763 295.646 570.274 323.052 607.084C346.002 637.9 357.46 681.301 367.935 723.268C386.382 797.415 399.707 892.655 459.434 922.968C498.219 942.661 550.268 926.543 594.868 912.782C645.539 897.205 696.146 876.686 746.818 861.071C792.139 847.1 846.633 829.72 885.227 852.267C918.507 871.709 935.494 917.517 947.99 960.87C972.41 1045.54 982.914 1173.69 1063.12 1192.57C1155.81 1214.38 1262.67 1135.47 1355.39 1160.93" stroke="url(#paint13_linear_312_639)" stroke-opacity="0.05" stroke-width="2.16035" stroke-miterlimit="10"/>
<path d="M-340.605 482.884C-276.026 507.145 -208.677 541.415 -138.907 549.02C-22.7756 561.618 101.722 530.21 219.149 536.28C261.289 538.472 301.038 545.382 328.526 581.912C351.874 612.999 363.66 656.994 374.321 699.502C393.198 774.79 406.597 871.21 466.721 902.926C505.534 923.391 557.195 907.572 602.113 893.445C653.027 877.416 703.826 856.19 754.734 840.14C800.417 825.722 854.52 808.719 893.239 831.86C926.598 851.802 943.381 897.609 955.781 941.354C980.047 1027.02 990.108 1153.36 1070.69 1173.08C1163.31 1195.79 1270.59 1113.76 1363.23 1140.5" stroke="url(#paint14_linear_312_639)" stroke-opacity="0.05" stroke-width="2.16035" stroke-miterlimit="10"/>
<path d="M-332.901 462.961C-267.867 486.851 -201.459 522.925 -131.012 529.445C-16.2642 540.064 106.471 506.668 222.459 510.797C265.377 512.313 303.953 519.375 331.902 556.259C355.754 587.696 368.565 631.678 380.201 674.23C400.711 749.407 415.66 847.342 474.741 881.759C512.644 903.844 564.48 887.995 609.096 873.771C659.477 857.712 709.733 836.238 760.115 820.14C805.786 805.543 859.791 788.794 897.932 813.255C930.746 834.293 947.777 880.762 960.676 924.27C985.72 1008.69 998.034 1133.6 1077.58 1153.25C1170.37 1176.17 1278.09 1093.61 1370.9 1120.56" stroke="url(#paint15_linear_312_639)" stroke-opacity="0.05" stroke-width="2.16035" stroke-miterlimit="10"/>
<path d="M-325.318 443.383C-259.838 467.212 -194.596 505.743 -123.352 511.361C-10.3631 520.266 110.23 484.989 224.379 487.472C267.899 488.381 305.385 495.764 333.859 532.519C358.249 564.008 372.442 607.508 385.088 650.157C407.343 725.109 424.521 823.573 482.599 860.414C519.551 883.869 570.831 868.547 615.093 854.323C664.699 838.336 714.1 816.785 763.676 800.806C809.26 786.116 862.514 770.151 900 795.745C932.424 817.901 949.939 864.733 963.556 908.108C989.787 991.427 1004.84 1114.39 1083.75 1133.95C1176.91 1157.07 1285.27 1073.95 1378.46 1101.09" stroke="url(#paint16_linear_312_639)" stroke-opacity="0.05" stroke-width="2.16035" stroke-miterlimit="10"/>
<path d="M-317.879 424.18C-251.969 448.232 -187.949 489.825 -115.882 494.648C-4.99598 502.098 113.17 465.045 225.206 465.99C269.109 466.364 305.645 474.239 334.676 510.466C359.784 541.784 375.35 584.721 389.207 627.154C413.721 701.787 433.024 799.745 490.389 838.964C526.362 863.545 576.432 849.278 620.291 835.113C668.833 819.418 717.205 797.821 765.736 782.083C811.197 767.326 863.048 752.635 899.873 779.203C932.062 802.46 950.269 849.402 964.855 892.624C992.648 974.926 1010.85 1095.51 1089.34 1114.97C1183.08 1138.21 1292.23 1054.56 1385.97 1081.86" stroke="url(#paint17_linear_312_639)" stroke-opacity="0.05" stroke-width="2.16035" stroke-miterlimit="10"/>
<path d="M-310.595 405.344C-244.251 429.857 -181.619 474.974 -108.637 479.154C-0.13128 485.373 115.408 446.565 225.003 446.334C269.073 446.206 304.833 454.68 334.421 490.029C360.332 520.992 377.313 563.187 392.627 605.051C419.745 679.206 441.291 775.862 498.065 817.313C566.574 867.353 685.069 790.278 766.458 763.799C811.769 749.043 861.725 736.021 897.802 763.471C929.868 787.891 948.869 834.749 964.58 877.84C994.251 959.187 1015.92 1077.05 1094.24 1096.39C1188.7 1119.73 1298.8 1035.53 1393.24 1062.96" stroke="url(#paint18_linear_312_639)" stroke-opacity="0.05" stroke-width="2.16035" stroke-miterlimit="10"/>
<path d="M-303.451 386.905C-236.692 412.066 -175.555 461.095 -101.617 464.805C4.3042 470.007 116.958 429.694 223.948 428.321C268.032 427.769 303.14 436.947 333.299 471.132C360.109 501.564 378.626 542.771 395.398 584.065C425.231 657.453 449.294 752.133 505.575 795.814C572.144 847.428 686.121 772.161 766.047 746.054C810.225 731.661 860.061 719.198 894.127 748.547C925.758 775.784 945.831 819.972 963.119 863.73C994.913 944.121 1020.32 1058.99 1098.68 1078.23C1193.99 1101.65 1305.13 1016.89 1400.43 1044.4" stroke="url(#paint19_linear_312_639)" stroke-opacity="0.05" stroke-width="2.16035" stroke-miterlimit="10"/>
<path d="M-296.444 368.821C-229.261 394.751 -169.693 448.055 -94.7133 451.249C8.44879 455.64 118.12 413.825 222.299 411.601C403.262 407.686 393.266 676.13 512.954 774.439C577.457 827.461 686.253 754.488 764.692 728.96C808.644 714.694 855.871 704.483 889.132 734.438C920.798 762.958 941.897 806.742 960.616 850.35C994.704 929.869 1024.07 1041.49 1102.64 1060.63C1198.9 1084.12 1311.17 998.808 1407.4 1026.44" stroke="url(#paint20_linear_312_639)" stroke-opacity="0.05" stroke-width="2.16035" stroke-miterlimit="10"/>
<path d="M-289.59 351.129C-222.031 378.024 -164.017 435.704 -87.9886 438.542C12.2948 442.291 118.92 399.105 220.17 396.121C397.922 390.908 403.991 652.495 520.214 753.195C582.777 807.439 685.649 737.275 762.639 712.26C806.41 698.042 850.733 690.458 883.175 720.878C914.913 750.694 937.153 794.02 957.371 837.445C993.924 915.964 1027.31 1024.32 1106.29 1043.36C1203.58 1066.84 1317.04 981.045 1414.27 1008.76" stroke="url(#paint21_linear_312_639)" stroke-opacity="0.05" stroke-width="2.16035" stroke-miterlimit="10"/>
<path d="M-282.878 333.812C-214.927 361.697 -158.502 423.918 -81.4105 426.502C15.9469 429.765 119.398 385.257 217.76 381.725C392.198 375.447 414.552 629.149 527.334 732.249C587.953 787.656 684.525 720.466 760.124 695.988C803.718 681.877 844.923 677.052 876.577 707.753C908.448 738.773 931.82 781.775 953.61 824.928C992.689 902.47 1030.16 1007.42 1109.6 1026.39C1207.95 1049.85 1322.66 963.56 1420.94 991.343" stroke="url(#paint22_linear_312_639)" stroke-opacity="0.05" stroke-width="2.16035" stroke-miterlimit="10"/>
<path d="M-276.31 316.866C-207.985 345.754 -153.096 412.554 -74.9153 414.993C19.5295 417.913 119.894 372.174 215.299 368.203C386.409 361.071 424.9 606.284 534.305 711.652C593.005 768.192 683.093 704.063 757.363 680.106C800.749 666.11 838.916 664.192 869.72 695.229C901.723 727.49 926.295 770.096 949.628 812.986C991.244 889.555 1032.79 991.079 1112.8 1009.98C1212.26 1033.45 1328.16 946.709 1427.53 974.483" stroke="url(#paint23_linear_312_639)" stroke-opacity="0.05" stroke-width="2.16035" stroke-miterlimit="10"/>
<path d="M-269.895 300.314C-201.212 330.18 -147.785 401.471 -68.654 403.808C22.9399 406.505 120.257 359.61 212.79 355.331C380.812 347.572 435.082 583.885 541.182 691.511C597.987 749.154 681.581 688.081 754.613 664.584C797.791 650.703 832.991 651.719 862.901 682.957C895.03 716.477 920.756 758.768 945.647 801.321C989.78 876.793 1035.28 975.026 1115.9 993.903C1216.45 1017.39 1333.59 930.052 1433.98 957.983" stroke="url(#paint24_linear_312_639)" stroke-opacity="0.05" stroke-width="2.16035" stroke-miterlimit="10"/>
<path d="M-263.616 284.114C-194.504 314.946 -142.543 390.531 -62.4295 392.858C26.4241 395.434 120.811 347.466 210.594 342.985C375.636 334.74 445.057 561.949 547.817 671.818C602.845 730.65 680.027 672.274 751.943 649.381C794.917 635.714 827.223 639.399 856.328 670.893C888.559 705.662 915.389 747.735 941.772 789.909C988.332 864.307 1037.66 959.274 1118.92 978.085C1220.5 1001.58 1338.81 913.738 1440.2 941.723" stroke="url(#paint25_linear_312_639)" stroke-opacity="0.05" stroke-width="2.16035" stroke-miterlimit="10"/>
<path d="M-257.487 268.309C-187.942 299.991 -137.314 379.629 -56.3098 382.007C29.9863 384.553 121.64 335.53 208.819 330.961C293.394 326.518 356.05 392.568 408.383 457.503C458.845 520.135 501.583 593.234 554.366 652.74C607.847 713.044 678.675 656.373 749.737 634.458C844.089 605.39 890.295 706.275 938.43 778.704C987.225 852.033 1040.18 943.872 1122.04 962.642C1224.58 986.176 1344.02 897.829 1446.36 925.91" stroke="url(#paint26_linear_312_639)" stroke-opacity="0.05" stroke-width="2.16035" stroke-miterlimit="10"/>
<path d="M-251.498 252.858C-181.481 285.288 -132.238 368.549 -50.25 371.091C33.708 373.672 122.821 323.727 207.72 319.117C291.593 314.521 356.849 379.856 410.767 441.636C463.558 502.141 508.834 572.609 560.746 634.337C612.659 696.064 677.997 641.393 748.125 619.82C840.308 591.476 887.504 698.989 935.764 767.68C986.569 839.989 1042.94 928.811 1125.28 947.592C1228.68 971.163 1349.15 882.319 1452.29 910.457" stroke="url(#paint27_linear_312_639)" stroke-opacity="0.05" stroke-width="2.16035" stroke-miterlimit="10"/>
<path d="M-245.658 237.8C-175.118 270.881 -127.14 357.245 -44.2533 359.959C37.6336 362.657 124.498 311.883 207.236 307.162C290.506 302.508 358.111 367.112 413.478 426.054C468.391 484.548 516.002 552.735 566.949 616.647C590.988 646.791 613.453 656.32 652.512 644.48C684.26 634.853 715.57 615.161 747.335 605.385C789.726 592.312 815.339 603.018 842.03 635.2C874.089 673.904 903.771 715.633 934.025 756.724C986.581 827.913 1045.98 913.999 1128.71 932.816C1232.84 956.494 1354.24 867.11 1458.14 895.404" stroke="url(#paint28_linear_312_639)" stroke-opacity="0.05" stroke-width="2.16035" stroke-miterlimit="10"/>
<path d="M-239.956 223.098C-168.741 256.44 -122.065 345.541 -38.2933 348.499C41.8996 351.324 126.869 299.507 207.873 295.052C290.684 290.495 360.306 354.276 416.895 410.86C473.484 467.445 523.156 533.85 573.018 599.94C596.06 630.479 617.193 641.7 655.946 629.878C686.673 620.501 716.892 600.818 747.613 591.283C789.812 578.176 814.25 590.731 840.107 623.313C871.882 663.351 902.198 705.267 933.485 745.937C987.455 816.071 1049.6 899.707 1132.47 918.535C1237.18 942.339 1359.36 852.437 1463.77 880.85" stroke="url(#paint29_linear_312_639)" stroke-opacity="0.05" stroke-width="2.16035" stroke-miterlimit="10"/>
<path d="M-234.412 208.804C-162.458 242.275 -117.011 333.362 -32.3846 336.571C46.5454 339.534 129.968 286.475 209.66 282.568C292.179 278.484 363.253 341.147 421.101 395.738C479.426 450.747 530.327 515.657 579.052 583.883C601.21 614.882 621.537 627.451 660.066 615.542C690.003 606.31 719.363 586.49 749.295 577.06C791.374 563.809 815.231 577.799 840.29 610.932C871.62 652.302 902.383 694.468 934.5 734.853C989.41 803.925 1053.97 885.406 1136.74 904.297C1241.84 928.268 1364.65 837.829 1469.47 866.44" stroke="url(#paint30_linear_312_639)" stroke-opacity="0.05" stroke-width="2.16035" stroke-miterlimit="10"/>
<path d="M-229.005 194.865C-156.199 228.137 -111.952 320.537 -26.4711 323.998C51.5536 327.157 133.918 273.319 212.655 269.454C294.891 265.436 367.309 327.856 426.009 380.766C485.634 434.521 537.245 498.474 584.763 568.909C606.109 600.57 626.239 614 664.673 601.879C694.085 592.6 722.86 572.535 752.302 563.072C794.347 549.554 818.277 564.412 842.586 598.328C873.268 641.127 904.267 683.599 937.003 723.755C992.532 791.855 1058.91 871.503 1141.3 890.44C1246.57 914.655 1369.82 823.644 1474.83 852.482" stroke="url(#paint31_linear_312_639)" stroke-opacity="0.05" stroke-width="2.16035" stroke-miterlimit="10"/>
<path d="M-223.724 181.289C-150.363 214.249 -106.876 307.175 -20.8422 310.576C56.9392 313.661 138.957 259.768 217.416 255.99C299.542 252.047 372.102 315.225 431.043 367.583C491.107 420.941 542.616 484.524 590.138 555.194C611.377 586.814 632.077 599.683 670.251 587.637C699.463 578.418 728.028 558.545 757.26 549.275C799.081 536.021 823.536 550.925 847.301 585.335C877.452 628.982 908.42 671.676 941.425 711.663C996.9 778.884 1064.58 858.429 1146.53 876.708C1251.91 900.241 1374.86 811.46 1480.09 838.957" stroke="url(#paint32_linear_312_639)" stroke-opacity="0.05" stroke-width="2.16035" stroke-miterlimit="10"/>
<path d="M-218.541 167.928C-144.936 200.748 -101.82 294.038 -15.4909 297.202C62.2627 300.042 144.311 246.882 222.745 243.31C304.792 239.571 376.645 304.017 435.413 356.505C495.2 409.912 546.451 473.316 595.256 542.003C641.456 607.011 696.579 555.737 762.881 536.083C804.329 523.798 829.054 538.494 852.491 572.874C882.366 616.708 913.289 659.307 946.387 699.017C1001.72 765.381 1070.43 845.577 1152.2 862.656C1257.67 884.665 1379.72 801.074 1485.23 825.814" stroke="url(#paint33_linear_312_639)" stroke-opacity="0.05" stroke-width="2.16035" stroke-miterlimit="10"/>
<path d="M-213.436 154.772C-139.553 187.543 -96.7937 281.262 -10.1424 284.296C67.6637 287.001 149.623 234.705 227.988 231.418C309.943 227.916 381.075 293.49 439.704 346.021C499.212 399.34 550.281 462.479 600.31 529.121C646.993 591.329 702.784 541.6 768.432 523.744C809.467 512.529 834.482 527.18 857.621 561.485C887.248 605.399 918.131 647.748 951.375 687.046C1006.73 752.502 1076.49 832.539 1157.96 848.522C1263.36 869.218 1384.46 790.94 1490.09 813.188" stroke="url(#paint34_linear_312_639)" stroke-opacity="0.05" stroke-width="2.16035" stroke-miterlimit="10"/>
<path d="M-208.422 141.853C-134.24 174.622 -91.7964 268.843 -4.81521 271.869C72.895 274.575 154.852 223.235 233.146 220.272C314.905 217.28 385.444 283.581 443.937 336.079C503.146 389.185 554.184 451.981 605.328 516.437C652.563 575.911 708.912 527.978 774.015 511.922C814.68 501.911 839.896 516.64 862.805 550.837C892.188 594.715 923.106 636.726 956.489 675.453C1012.02 739.924 1082.76 819.027 1163.97 834.113C1269.25 853.688 1389.28 780.875 1494.93 800.843" stroke="url(#paint35_linear_312_639)" stroke-opacity="0.05" stroke-width="2.16035" stroke-miterlimit="10"/>
<path d="M-203.494 129.155C-128.979 162.014 -86.8695 256.711 0.508685 259.87C78.1072 262.689 160.081 212.292 238.211 209.93C319.743 207.455 389.561 274.357 448.063 326.76C506.959 379.551 557.946 441.878 610.268 504.095C658.012 560.876 714.903 514.988 779.496 500.96C819.802 492.196 845.172 507.161 867.906 541.212C896.918 585.111 928.186 626.279 961.573 664.533C1017.44 727.944 1089.07 805.479 1170.09 819.75C1275.03 838.331 1394.02 771.129 1499.46 789.049" stroke="url(#paint36_linear_312_639)" stroke-opacity="0.05" stroke-width="2.16035" stroke-miterlimit="10"/>
<path d="M-198.646 116.7C-123.788 149.692 -81.9318 244.974 5.81197 248.313C83.2792 251.297 165.253 201.993 243.243 200.24C324.495 198.419 393.748 265.727 452.166 317.961C510.8 370.338 561.807 432.087 615.2 491.986C663.446 546.13 720.892 502.467 784.999 490.612C824.954 483.216 850.427 498.513 873.023 532.394C901.867 576.012 933.168 616.647 966.761 654.084C1023.11 716.371 1095.63 791.54 1176.41 805.265C1280.93 823.026 1398.77 761.565 1503.96 777.61" stroke="url(#paint37_linear_312_639)" stroke-opacity="0.05" stroke-width="2.16035" stroke-miterlimit="10"/>
<path d="M-193.915 104.513C-118.673 137.672 -77.0576 233.544 11.0452 237.256C88.3537 240.51 170.324 192.376 248.083 191.295C329.024 190.174 397.675 257.737 456.119 309.728C514.402 361.501 565.608 422.663 620.009 480.16C668.766 531.711 726.761 490.503 790.39 480.943C829.991 474.992 855.539 490.727 878.018 524.524C906.694 567.767 938.028 607.772 971.821 644.287C1028.79 705.311 1102.1 777.64 1182.69 790.885C1286.69 807.995 1403.3 752.364 1508.12 766.763" stroke="url(#paint38_linear_312_639)" stroke-opacity="0.05" stroke-width="2.16035" stroke-miterlimit="10"/>
<path d="M-189.275 92.5618C-113.64 125.97 -72.2207 222.528 16.2793 226.55C93.3831 230.193 175.33 183.318 252.877 182.995C333.456 182.671 401.56 250.316 459.961 301.959C517.902 353.209 569.351 413.528 624.721 468.588C673.995 517.567 732.555 478.978 795.696 471.846C834.922 467.467 860.532 483.675 882.988 517.248C911.531 560.058 942.946 599.35 976.995 634.826C1034.69 694.629 1108.76 763.522 1189.18 776.39C1292.62 792.89 1407.88 743.279 1512.25 756.159" stroke="url(#paint39_linear_312_639)" stroke-opacity="0.05" stroke-width="2.16035" stroke-miterlimit="10"/>
<path d="M-184.741 80.8838C-108.684 114.572 -67.5392 211.805 21.4029 216.407C98.3282 220.372 180.267 174.821 257.57 175.341C337.743 175.894 405.292 243.462 463.723 294.745C521.368 345.354 573.099 404.768 629.367 457.324C679.123 503.854 738.3 468.002 800.943 463.39C839.836 460.542 865.43 477.428 887.947 510.633C916.378 552.918 947.879 591.413 982.173 625.777C1040.72 684.191 1115.47 749.191 1195.75 761.79C1298.48 778.017 1412.37 734.335 1516.22 745.882" stroke="url(#paint40_linear_312_639)" stroke-opacity="0.05" stroke-width="2.16035" stroke-miterlimit="10"/>
<path d="M-180.317 69.4929C-103.828 103.504 -62.8741 201.445 26.4272 206.595C103.185 211.1 185.115 166.874 262.161 168.309C341.889 169.803 408.876 237.134 467.451 288.044C524.802 337.934 576.867 396.344 634.027 446.376C684.293 490.389 744.089 457.509 806.214 455.547C844.747 454.336 870.312 471.893 892.845 504.988C921.176 546.685 952.785 584.301 987.345 617.447C1046.78 674.369 1122.15 735.158 1202.34 747.506C1304.37 763.326 1416.72 725.882 1520 736.233" stroke="url(#paint41_linear_312_639)" stroke-opacity="0.05" stroke-width="2.16035" stroke-miterlimit="10"/>
<path d="M-176.026 58.444C-99.0965 92.7617 -58.3225 191.413 31.5131 197.258C107.974 202.215 189.88 159.462 266.635 161.858C345.893 164.323 412.358 231.355 470.969 281.712C528.058 330.838 580.501 388.125 638.477 435.622C689.248 477.235 749.754 447.341 811.29 448.138C849.449 448.598 874.997 466.871 897.6 499.818C925.846 540.867 957.573 577.536 992.401 609.387C1052.96 664.771 1128.93 720.834 1208.99 733.17C1310.24 748.826 1420.98 717.554 1523.65 726.832" stroke="url(#paint42_linear_312_639)" stroke-opacity="0.05" stroke-width="2.16035" stroke-miterlimit="10"/>
<path d="M-171.806 47.5812C-94.4007 82.3558 -53.7653 181.754 36.4546 188.294C112.674 193.84 194.578 152.57 271.001 155.971C349.781 159.5 415.72 226.095 474.394 276.008C531.216 324.347 584.083 380.393 642.839 425.341C694.106 464.647 755.329 437.899 816.237 441.518C854.016 443.705 879.475 462.842 902.237 495.518C930.418 535.866 962.279 571.529 997.379 602.018C1059.08 655.736 1135.6 706.874 1215.57 719.158C1316.05 734.615 1425.03 709.73 1527.07 718.059" stroke="url(#paint43_linear_312_639)" stroke-opacity="0.05" stroke-width="2.16035" stroke-miterlimit="10"/>
<path d="M-167.723 37.0745C-89.8353 72.2892 -49.3505 172.43 41.334 179.773C117.258 185.909 199.106 146.159 275.247 150.641C353.506 155.238 418.928 221.34 477.699 270.686C534.296 318.197 587.586 372.903 647.086 415.288C698.93 452.221 760.845 428.785 821.171 435.146C858.544 439.089 883.896 459.102 906.836 491.632C934.968 531.228 966.977 565.82 1002.36 594.862C1065.25 646.774 1142.29 692.748 1222.19 705.086C1321.86 720.502 1429.02 701.977 1530.42 709.438" stroke="url(#paint44_linear_312_639)" stroke-opacity="0.05" stroke-width="2.16035" stroke-miterlimit="10"/>
<path d="M-163.765 26.8922C-85.4132 62.5594 -45.0197 163.465 46.069 171.628C121.756 178.413 203.558 140.227 279.369 145.811C357.08 151.544 422.013 217.048 480.947 265.831C537.332 312.519 591.078 365.761 651.315 405.601C703.75 440.263 766.38 420.188 826.047 429.417C863.026 435.121 888.251 456.061 911.428 488.331C939.515 527.166 971.679 560.67 1007.34 588.236C1071.52 638.246 1149.01 678.851 1228.85 691.299C1327.6 706.655 1432.85 694.616 1533.59 701.294" stroke="url(#paint45_linear_312_639)" stroke-opacity="0.05" stroke-width="2.16035" stroke-miterlimit="10"/>
<path d="M-159.932 17.0299C-81.0979 53.1757 -40.7629 154.761 50.7248 163.898C126.15 171.363 207.905 134.74 283.366 141.477C360.505 148.413 424.969 213.229 484.043 261.403C540.252 307.242 594.464 358.927 655.361 396.211C708.407 428.689 771.722 412.02 830.695 424.105C867.231 431.59 892.34 453.499 915.734 485.56C943.797 523.59 976.129 555.952 1012.06 581.978C1077.56 629.957 1155.52 665.101 1235.31 677.667C1333.27 693.108 1436.41 687.538 1536.53 693.506" stroke="url(#paint46_linear_312_639)" stroke-opacity="0.05" stroke-width="2.16035" stroke-miterlimit="10"/>
<path d="M-156.237 7.52436C-76.91 44.1533 -36.669 146.581 55.2519 156.568C130.403 164.708 212.128 129.713 287.207 137.688C363.767 145.768 427.732 209.941 487.03 257.5C543.056 302.546 597.761 352.528 659.324 387.278C713.071 417.625 777.002 404.395 835.345 419.379C871.474 428.659 896.341 451.548 920.135 483.452C948.184 520.665 980.692 551.861 1016.9 576.309C1168.46 680.266 1357.71 676.62 1539.51 686.281" stroke="url(#paint47_linear_312_639)" stroke-opacity="0.05" stroke-width="2.16035" stroke-miterlimit="10"/>
<path d="M-152.66 -1.67297C-72.8407 35.4777 -32.6542 138.645 59.6841 149.594C134.553 158.464 216.23 125.109 290.978 134.187C366.962 143.41 430.439 206.908 489.838 253.783C545.766 297.991 600.911 346.269 663.136 378.424C717.677 406.677 782.083 397.008 839.817 414.802C875.498 425.841 900.227 449.829 924.31 481.512C952.06 518.24 985.238 547.636 1021.5 570.805C1171.34 666.565 1364.57 670.741 1542.2 679.201" stroke="url(#paint48_linear_312_639)" stroke-opacity="0.05" stroke-width="2.16035" stroke-miterlimit="10"/>
<path d="M-149.226 -10.496C-68.9155 27.1763 -28.7717 131.089 63.9774 143.016C138.602 152.553 220.193 120.902 294.578 131.167C369.965 141.584 432.957 204.368 492.553 250.519C548.426 293.847 603.99 340.373 666.81 370.104C722.251 396.343 787.052 390.085 844.144 410.813C879.377 423.611 903.915 448.658 928.338 480.199C956.141 516.089 989.536 544.144 1026.02 565.758C1095.52 606.928 1174.98 625.379 1254.58 638.554C1350.08 654.356 1446.41 668.425 1544.81 672.501" stroke="url(#paint49_linear_312_639)" stroke-opacity="0.05" stroke-width="2.16035" stroke-miterlimit="10"/>
<path d="M-145.932 -18.9633C-65.7993 18.8548 -25.8027 122.867 66.1753 136.545C139.958 147.456 220.84 117.991 294.68 128.084C369.318 138.291 431.309 199.126 490.602 244.301C547.946 287.904 605.285 334.023 670.358 362.144C728.124 387.114 795.212 383.457 852.585 409.055C887.215 424.509 910.266 452.456 935.543 483.37C961.799 515.482 993.09 540.149 1027.01 559.195C1099.22 599.731 1181.32 612.742 1262.79 626.561C1356.83 642.517 1450.07 662.851 1547.25 666.358" stroke="url(#paint50_linear_312_639)" stroke-opacity="0.05" stroke-width="2.16035" stroke-miterlimit="10"/>
<path d="M-142.791 -27.0641C-62.2023 11.262 -22.1708 116.029 70.1523 130.68C143.658 142.343 224.488 114.458 297.982 125.764C371.973 137.224 433.549 197.373 492.99 241.883C550.25 284.789 607.963 329.198 673.702 354.571C732.71 377.346 799.746 377.592 856.568 406.062C890.635 423.114 913.568 452.108 939.244 482.727C965.538 514.073 997.038 537.493 1031.16 555.112C1104.65 593.06 1187.45 600.366 1268.74 614.605C1361.98 630.936 1452.76 657.602 1549.49 660.503" stroke="url(#paint51_linear_312_639)" stroke-opacity="0.05" stroke-width="2.16035" stroke-miterlimit="10"/>
<path d="M-139.791 -34.7668C-58.6862 4.09014 -18.7554 109.541 74.0141 125.184C147.281 137.535 228.027 111.277 301.17 123.775C374.593 136.284 435.675 195.988 495.316 239.873C552.476 281.98 610.61 324.56 676.963 347.321C737.269 368 804.161 372.036 860.458 403.348C893.962 421.998 916.771 452.018 942.811 482.328C969.076 512.902 1000.86 535.103 1035.15 551.286C1109.89 586.593 1193.43 588.328 1274.54 602.966C1367.02 619.647 1455.21 652.634 1551.58 654.969" stroke="url(#paint52_linear_312_639)" stroke-opacity="0.05" stroke-width="2.16035" stroke-miterlimit="10"/>
<path d="M-136.942 -42.0784C-55.3427 -2.77689 -15.3717 103.45 77.7192 120.057C150.742 133.075 231.437 108.358 304.214 122.121C376.991 135.884 437.644 194.934 497.351 238.122C554.6 279.541 613.062 320.355 680.024 340.481C741.749 359.034 808.347 366.86 864.131 400.98C897.13 421.153 919.764 452.257 946.269 482.279C972.775 512.301 1004.58 533.088 1039.04 547.869C1114.84 580.424 1199.33 576.807 1280.2 591.821C1371.97 608.854 1457.64 648.167 1553.62 649.841" stroke="url(#paint53_linear_312_639)" stroke-opacity="0.05" stroke-width="2.16035" stroke-miterlimit="10"/>
<path d="M-134.254 -49.0049C-52.2067 -9.1398 -12.1709 97.6589 81.2338 115.284C154.043 128.962 234.617 105.897 307.082 120.749C379.244 135.543 439.526 194.216 499.344 236.764C556.64 277.498 615.389 316.51 682.976 334.067C746.204 350.487 812.397 362.04 867.723 398.931C900.058 420.507 922.654 452.767 949.546 482.489C975.949 511.652 1008.16 531.386 1042.72 544.781C1119.58 574.601 1205 565.803 1285.62 581.149C1376.81 598.503 1459.82 644.07 1555.46 645.05" stroke="url(#paint54_linear_312_639)" stroke-opacity="0.05" stroke-width="2.16035" stroke-miterlimit="10"/>
<path d="M-131.732 -55.5088C-49.2084 -15.1867 -9.21529 92.3567 84.5804 110.836C157.17 125.19 237.702 103.572 309.777 119.679C381.415 135.618 441.068 193.775 501.127 235.732C558.542 275.771 617.588 313.063 685.728 328.061C750.53 342.337 816.211 357.577 871.123 397.197C902.928 420.11 925.384 453.507 952.676 482.934C979.148 511.46 1011.51 529.941 1046.21 542.007C1123.99 569.08 1210.47 555.34 1290.86 570.968C1381.39 588.576 1461.73 640.393 1557.22 640.594" stroke="url(#paint55_linear_312_639)" stroke-opacity="0.05" stroke-width="2.16035" stroke-miterlimit="10"/>
<path d="M-129.354 -61.5967C-46.3967 -20.8143 -6.36486 87.3687 87.7484 106.751C160.17 121.645 240.605 101.688 312.342 118.778C383.432 135.715 442.524 193.597 502.784 234.929C560.31 274.328 619.646 309.916 688.33 322.411C754.763 334.506 819.928 353.373 874.315 395.62C905.56 419.878 927.884 454.395 955.603 483.597C982.122 511.399 1014.69 528.81 1049.55 539.589C1128.15 563.935 1215.74 545.511 1295.89 561.377C1385.88 579.187 1463.54 637.189 1558.87 636.606" stroke="url(#paint56_linear_312_639)" stroke-opacity="0.05" stroke-width="2.16035" stroke-miterlimit="10"/>
<path d="M-127.153 -67.2656C-43.8133 -26.0627 -3.74406 82.7983 90.7076 102.994C162.961 118.429 243.233 99.951 314.731 118.119C385.296 136.064 443.887 193.694 504.25 234.441C561.864 273.366 621.523 307.167 690.721 317.206C758.832 327.099 823.307 349.446 877.302 394.294C907.984 419.799 930.21 455.449 958.298 484.364C984.822 511.661 1017.64 527.86 1052.57 537.399C1131.9 559.057 1220.62 536.25 1300.56 552.231C1390.15 570.199 1465.04 634.315 1560.31 632.809" stroke="url(#paint57_linear_312_639)" stroke-opacity="0.05" stroke-width="2.16035" stroke-miterlimit="10"/>
<path d="M-125.128 -72.4785C-41.3162 -30.8787 -1.26752 78.599 93.4647 99.5474C165.581 115.514 245.752 98.4613 316.933 117.659C387.005 136.565 445.052 193.985 505.54 234.234C563.277 272.66 623.232 304.779 692.947 312.422C762.661 320.064 826.53 345.847 880.119 393.193C910.266 419.838 932.51 456.354 960.814 485.275C987.129 512.197 1020.47 527.175 1055.41 535.45C1135.36 554.594 1225.24 527.627 1304.96 543.719C1394.12 561.714 1466.37 631.935 1561.63 629.392" stroke="url(#paint58_linear_312_639)" stroke-opacity="0.05" stroke-width="2.16035" stroke-miterlimit="10"/>
<path d="M-123.182 -77.3076C-38.9624 -35.3552 1.03027 74.7254 96.0917 96.406C167.994 112.856 248.058 97.2067 318.962 117.371C388.519 137.151 446.078 194.5 506.658 234.297C564.538 272.251 624.767 302.778 694.967 308.07C766.482 313.48 829.555 342.45 882.715 392.245C912.364 419.967 934.527 457.506 963.118 486.283C989.446 512.782 1023.01 526.672 1057.96 533.896C1096.1 541.766 1136.31 541.594 1176.57 539.721C1220 537.726 1267.82 527.568 1309.04 535.906C1397.89 553.86 1467.48 630.082 1562.8 626.392" stroke="url(#paint59_linear_312_639)" stroke-opacity="0.05" stroke-width="2.16035" stroke-miterlimit="10"/>
<path d="M-121.542 -81.5557C-36.9495 -39.3029 2.97008 71.3546 98.3817 93.6777C170.219 110.474 250.193 96.0776 320.82 117.208C389.935 137.814 446.925 195.158 507.584 234.575C565.581 272.223 626.139 301.159 696.799 304.17C770.001 307.283 832.373 339.34 885.142 391.521C914.205 420.305 936.345 458.714 965.198 487.338C991.528 513.447 1025.29 526.361 1060.28 532.527C1098.75 539.334 1139.22 537.895 1179.65 534.976C1223.21 531.84 1271.58 520.413 1312.82 528.695C1401.41 546.515 1468.41 628.663 1563.88 623.644" stroke="url(#paint60_linear_312_639)" stroke-opacity="0.05" stroke-width="2.16035" stroke-miterlimit="10"/>
<path d="M-120.054 -85.4121C-35.1112 -42.8682 4.80761 68.355 100.465 91.2026C172.232 108.323 252.055 95.2344 322.445 117.152C391.152 138.537 447.542 196.059 508.291 235.101C566.425 272.432 627.283 299.922 698.395 300.667C773.32 301.537 834.932 336.443 887.331 390.922C915.897 420.607 937.965 459.905 967.061 488.428C993.372 514.198 1027.26 526.184 1062.34 531.427C1101.1 537.216 1141.83 534.588 1182.42 530.717C1226.09 526.551 1274.96 513.987 1316.23 522.168C1404.63 539.695 1469.12 627.728 1564.82 621.296" stroke="url(#paint61_linear_312_639)" stroke-opacity="0.05" stroke-width="2.16035" stroke-miterlimit="10"/>
<path d="M-118.749 -88.792C-33.4397 -46.1065 6.37448 65.7399 102.311 89.027C174.062 106.434 253.81 94.5268 323.983 117.219C392.337 139.307 448.124 197.124 508.907 235.867C567.156 272.968 628.335 299.099 699.836 297.71C776.445 296.225 837.239 333.742 889.327 390.365C917.414 420.939 939.426 461.016 968.717 489.458C995.006 514.966 1029.06 526.159 1064.13 530.519C1103.2 535.373 1144.13 531.651 1184.89 526.906C1228.7 521.779 1277.95 508.29 1319.33 516.336C1407.68 533.494 1469.7 627.271 1565.63 619.207" stroke="url(#paint62_linear_312_639)" stroke-opacity="0.05" stroke-width="2.16035" stroke-miterlimit="10"/>
<path d="M-117.635 -91.6797C-31.982 -48.8618 7.69984 63.5387 103.92 87.1496C175.61 104.748 255.273 93.9403 325.276 117.25C393.303 139.973 448.424 198.177 509.279 236.733C567.623 273.695 629.136 298.608 701.036 295.129C779.328 291.326 839.266 331.168 891.066 389.944C918.678 421.291 940.637 462.069 970.097 490.46C996.351 515.778 1030.49 526.262 1065.59 529.855C1104.94 533.858 1146.07 529.16 1186.97 523.613C1230.92 517.64 1280.42 503.407 1321.97 511.307C1410.32 527.938 1470.04 627.399 1566.31 617.479" stroke="url(#paint63_linear_312_639)" stroke-opacity="0.05" stroke-width="2.16035" stroke-miterlimit="10"/>
<path d="M-116.703 -94.0928C-31.4887 -51.4438 7.95657 60.8653 103.329 85.0862C178.689 104.237 263.383 92.0534 335.749 120.901C397.617 145.561 448.651 198.927 505.159 235.22C565.2 273.774 627.759 297.49 701.969 293.205C784.226 288.532 843.404 330.52 896.346 394.264C920.083 422.828 940.016 456.988 964.391 484.568C990.187 513.75 1026.23 525.787 1063.01 529.305C1104.73 533.308 1148.52 527.178 1191.91 520.502C1235.68 513.698 1284.94 499.357 1326.18 507.463C1413.33 524.687 1471.02 627.992 1566.83 616.098" stroke="url(#paint64_linear_312_639)" stroke-opacity="0.05" stroke-width="2.16035" stroke-miterlimit="10"/>
<path d="M-115.969 -95.9951C-30.4599 -53.3692 8.76893 59.5006 104.396 83.8003C179.787 102.944 264.446 91.8003 336.604 121.115C398.262 146.181 448.661 200.239 505.128 236.535C565.203 275.142 628.117 297.902 702.74 291.629C786.744 284.546 844.824 328.355 897.607 394.166C920.967 423.286 940.903 457.682 965.355 485.311C991.074 514.482 1027.09 526.121 1063.88 529.039C1105.84 532.371 1149.83 525.319 1193.32 518.058C1237.23 510.726 1286.61 496.058 1328.07 503.861C1415.31 520.397 1471.05 629.022 1567.29 614.93" stroke="url(#paint65_linear_312_639)" stroke-opacity="0.05" stroke-width="2.16035" stroke-miterlimit="10"/>
<path d="M-115.444 -97.3555C-29.7051 -54.797 9.26792 58.5596 105.221 82.7899C180.663 101.836 265.162 91.5674 337.257 121.326C398.766 146.706 448.496 201.618 504.899 238.007C564.944 276.797 628.274 298.761 703.203 290.498C788.903 281.064 845.859 326.235 898.58 393.935C921.665 423.554 941.581 458.215 965.984 486.04C991.646 515.287 1027.42 526.654 1064.36 529.104C1149.73 534.727 1246.73 486.615 1329.44 501.287C1416.92 516.8 1470.91 630.624 1567.6 614.131" stroke="url(#paint66_linear_312_639)" stroke-opacity="0.05" stroke-width="2.16035" stroke-miterlimit="10"/>
<path d="M-115.111 -98.2188C-29.1643 -55.7753 9.58837 58.0818 105.753 82.0814C181.292 100.911 265.745 91.4644 337.7 121.481C399.116 147.137 448.154 203.032 504.449 239.633C564.439 278.635 628.225 300.053 703.474 289.904C790.804 278.112 846.586 324.177 899.315 393.793C922.007 423.69 941.647 459.279 966.363 486.502C992.625 515.395 1027.04 527.154 1064.51 529.282C1150.32 534.14 1246.97 485.814 1330.38 499.503C1418.17 513.871 1470.62 632.781 1567.75 613.606" stroke="url(#paint67_linear_312_639)" stroke-opacity="0.05" stroke-width="2.16035" stroke-miterlimit="10"/>
<path d="M-114.986 -98.543C-28.8526 -56.3008 9.57319 58.0156 105.997 81.6271C181.653 100.151 265.965 91.3524 338.003 121.577C399.392 147.339 447.669 204.502 503.833 241.404C563.698 280.729 627.993 301.816 703.538 289.809C792.42 275.651 847.008 322.132 899.77 393.635C947.98 458.93 982.768 525.506 1064.31 529.615C1150.56 533.955 1246.64 486.135 1330.82 498.638C1419 511.729 1470.11 635.45 1567.88 613.556" stroke="url(#paint68_linear_312_639)" stroke-opacity="0.05" stroke-width="2.16035" stroke-miterlimit="10"/>
<defs>
<linearGradient id="paint0_linear_312_639" x1="1.22786e+06" y1="475000" x2="1.22789e+06" y2="474931" gradientUnits="userSpaceOnUse">
<stop stop-color="white"/>
<stop offset="1" stop-color="white"/>
</linearGradient>
<linearGradient id="paint1_linear_312_639" x1="1.22746e+06" y1="475940" x2="1.22777e+06" y2="475149" gradientUnits="userSpaceOnUse">
<stop stop-color="white"/>
<stop offset="1" stop-color="white"/>
</linearGradient>
<linearGradient id="paint2_linear_312_639" x1="1.22715e+06" y1="476838" x2="1.22772e+06" y2="475377" gradientUnits="userSpaceOnUse">
<stop stop-color="white"/>
<stop offset="1" stop-color="white"/>
</linearGradient>
<linearGradient id="paint3_linear_312_639" x1="1.22664e+06" y1="478160" x2="1.22759e+06" y2="475711" gradientUnits="userSpaceOnUse">
<stop stop-color="white"/>
<stop offset="1" stop-color="white"/>
</linearGradient>
<linearGradient id="paint4_linear_312_639" x1="1.2258e+06" y1="480355" x2="1.22737e+06" y2="476277" gradientUnits="userSpaceOnUse">
<stop stop-color="white"/>
<stop offset="1" stop-color="white"/>
</linearGradient>
<linearGradient id="paint5_linear_312_639" x1="1.22486e+06" y1="482769" x2="1.22713e+06" y2="476903" gradientUnits="userSpaceOnUse">
<stop stop-color="white"/>
<stop offset="1" stop-color="white"/>
</linearGradient>
<linearGradient id="paint6_linear_312_639" x1="1.22373e+06" y1="485707" x2="1.22683e+06" y2="477668" gradientUnits="userSpaceOnUse">
<stop stop-color="white"/>
<stop offset="1" stop-color="white"/>
</linearGradient>
<linearGradient id="paint7_linear_312_639" x1="1.22252e+06" y1="488789" x2="1.22651e+06" y2="478467" gradientUnits="userSpaceOnUse">
<stop stop-color="white"/>
<stop offset="1" stop-color="white"/>
</linearGradient>
<linearGradient id="paint8_linear_312_639" x1="1.22135e+06" y1="491898" x2="1.22622e+06" y2="479286" gradientUnits="userSpaceOnUse">
<stop stop-color="white"/>
<stop offset="1" stop-color="white"/>
</linearGradient>
<linearGradient id="paint9_linear_312_639" x1="1.22018e+06" y1="494830" x2="1.22589e+06" y2="480041" gradientUnits="userSpaceOnUse">
<stop stop-color="white"/>
<stop offset="1" stop-color="white"/>
</linearGradient>
<linearGradient id="paint10_linear_312_639" x1="1.21908e+06" y1="497761" x2="1.22562e+06" y2="480812" gradientUnits="userSpaceOnUse">
<stop stop-color="white"/>
<stop offset="1" stop-color="white"/>
</linearGradient>
<linearGradient id="paint11_linear_312_639" x1="1.21821e+06" y1="500005" x2="1.2254e+06" y2="481394" gradientUnits="userSpaceOnUse">
<stop stop-color="white"/>
<stop offset="1" stop-color="white"/>
</linearGradient>
<linearGradient id="paint12_linear_312_639" x1="1.21757e+06" y1="501667" x2="1.22523e+06" y2="481821" gradientUnits="userSpaceOnUse">
<stop stop-color="white"/>
<stop offset="1" stop-color="white"/>
</linearGradient>
<linearGradient id="paint13_linear_312_639" x1="1.21726e+06" y1="502566" x2="1.22518e+06" y2="482055" gradientUnits="userSpaceOnUse">
<stop stop-color="white"/>
<stop offset="1" stop-color="white"/>
</linearGradient>
<linearGradient id="paint14_linear_312_639" x1="1.21708e+06" y1="502946" x2="1.22511e+06" y2="482131" gradientUnits="userSpaceOnUse">
<stop stop-color="white"/>
<stop offset="1" stop-color="white"/>
</linearGradient>
<linearGradient id="paint15_linear_312_639" x1="1.2169e+06" y1="503334" x2="1.22505e+06" y2="482211" gradientUnits="userSpaceOnUse">
<stop stop-color="white"/>
<stop offset="1" stop-color="white"/>
</linearGradient>
<linearGradient id="paint16_linear_312_639" x1="1.21682e+06" y1="503561" x2="1.22504e+06" y2="482259" gradientUnits="userSpaceOnUse">
<stop stop-color="white"/>
<stop offset="1" stop-color="white"/>
</linearGradient>
<linearGradient id="paint17_linear_312_639" x1="1.21684e+06" y1="503641" x2="1.22508e+06" y2="482279" gradientUnits="userSpaceOnUse">
<stop stop-color="white"/>
<stop offset="1" stop-color="white"/>
</linearGradient>
<linearGradient id="paint18_linear_312_639" x1="1.21684e+06" y1="503554" x2="1.22507e+06" y2="482236" gradientUnits="userSpaceOnUse">
<stop stop-color="white"/>
<stop offset="1" stop-color="white"/>
</linearGradient>
<linearGradient id="paint19_linear_312_639" x1="1.21692e+06" y1="503348" x2="1.2251e+06" y2="482169" gradientUnits="userSpaceOnUse">
<stop stop-color="white"/>
<stop offset="1" stop-color="white"/>
</linearGradient>
<linearGradient id="paint20_linear_312_639" x1="1.21711e+06" y1="502882" x2="1.22516e+06" y2="482037" gradientUnits="userSpaceOnUse">
<stop stop-color="white"/>
<stop offset="1" stop-color="white"/>
</linearGradient>
<linearGradient id="paint21_linear_312_639" x1="1.21724e+06" y1="502571" x2="1.2252e+06" y2="481945" gradientUnits="userSpaceOnUse">
<stop stop-color="white"/>
<stop offset="1" stop-color="white"/>
</linearGradient>
<linearGradient id="paint22_linear_312_639" x1="1.21734e+06" y1="502171" x2="1.22519e+06" y2="481814" gradientUnits="userSpaceOnUse">
<stop stop-color="white"/>
<stop offset="1" stop-color="white"/>
</linearGradient>
<linearGradient id="paint23_linear_312_639" x1="1.21753e+06" y1="501781" x2="1.22527e+06" y2="481710" gradientUnits="userSpaceOnUse">
<stop stop-color="white"/>
<stop offset="1" stop-color="white"/>
</linearGradient>
<linearGradient id="paint24_linear_312_639" x1="1.21773e+06" y1="501368" x2="1.22536e+06" y2="481600" gradientUnits="userSpaceOnUse">
<stop stop-color="white"/>
<stop offset="1" stop-color="white"/>
</linearGradient>
<linearGradient id="paint25_linear_312_639" x1="1.21784e+06" y1="500916" x2="1.22535e+06" y2="481456" gradientUnits="userSpaceOnUse">
<stop stop-color="white"/>
<stop offset="1" stop-color="white"/>
</linearGradient>
<linearGradient id="paint26_linear_312_639" x1="1.21808e+06" y1="500360" x2="1.22543e+06" y2="481304" gradientUnits="userSpaceOnUse">
<stop stop-color="white"/>
<stop offset="1" stop-color="white"/>
</linearGradient>
<linearGradient id="paint27_linear_312_639" x1="1.2182e+06" y1="499944" x2="1.22544e+06" y2="481175" gradientUnits="userSpaceOnUse">
<stop stop-color="white"/>
<stop offset="1" stop-color="white"/>
</linearGradient>
<linearGradient id="paint28_linear_312_639" x1="1.21834e+06" y1="499589" x2="1.22549e+06" y2="481074" gradientUnits="userSpaceOnUse">
<stop stop-color="white"/>
<stop offset="1" stop-color="white"/>
</linearGradient>
<linearGradient id="paint29_linear_312_639" x1="1.21844e+06" y1="499304" x2="1.22551e+06" y2="480986" gradientUnits="userSpaceOnUse">
<stop stop-color="white"/>
<stop offset="1" stop-color="white"/>
</linearGradient>
<linearGradient id="paint30_linear_312_639" x1="1.21861e+06" y1="499087" x2="1.22561e+06" y2="480939" gradientUnits="userSpaceOnUse">
<stop stop-color="white"/>
<stop offset="1" stop-color="white"/>
</linearGradient>
<linearGradient id="paint31_linear_312_639" x1="1.21862e+06" y1="498953" x2="1.22559e+06" y2="480884" gradientUnits="userSpaceOnUse">
<stop stop-color="white"/>
<stop offset="1" stop-color="white"/>
</linearGradient>
<linearGradient id="paint32_linear_312_639" x1="1.21864e+06" y1="498895" x2="1.2256e+06" y2="480859" gradientUnits="userSpaceOnUse">
<stop stop-color="white"/>
<stop offset="1" stop-color="white"/>
</linearGradient>
<linearGradient id="paint33_linear_312_639" x1="1.21873e+06" y1="498746" x2="1.22565e+06" y2="480817" gradientUnits="userSpaceOnUse">
<stop stop-color="white"/>
<stop offset="1" stop-color="white"/>
</linearGradient>
<linearGradient id="paint34_linear_312_639" x1="1.2188e+06" y1="498496" x2="1.22565e+06" y2="480733" gradientUnits="userSpaceOnUse">
<stop stop-color="white"/>
<stop offset="1" stop-color="white"/>
</linearGradient>
<linearGradient id="paint35_linear_312_639" x1="1.21896e+06" y1="498157" x2="1.22572e+06" y2="480641" gradientUnits="userSpaceOnUse">
<stop stop-color="white"/>
<stop offset="1" stop-color="white"/>
</linearGradient>
<linearGradient id="paint36_linear_312_639" x1="1.21909e+06" y1="497729" x2="1.22574e+06" y2="480511" gradientUnits="userSpaceOnUse">
<stop stop-color="white"/>
<stop offset="1" stop-color="white"/>
</linearGradient>
<linearGradient id="paint37_linear_312_639" x1="1.21931e+06" y1="497239" x2="1.22582e+06" y2="480379" gradientUnits="userSpaceOnUse">
<stop stop-color="white"/>
<stop offset="1" stop-color="white"/>
</linearGradient>
<linearGradient id="paint38_linear_312_639" x1="1.21949e+06" y1="496668" x2="1.22584e+06" y2="480208" gradientUnits="userSpaceOnUse">
<stop stop-color="white"/>
<stop offset="1" stop-color="white"/>
</linearGradient>
<linearGradient id="paint39_linear_312_639" x1="1.21974e+06" y1="496040" x2="1.22592e+06" y2="480035" gradientUnits="userSpaceOnUse">
<stop stop-color="white"/>
<stop offset="1" stop-color="white"/>
</linearGradient>
<linearGradient id="paint40_linear_312_639" x1="1.22e+06" y1="495333" x2="1.22598e+06" y2="479834" gradientUnits="userSpaceOnUse">
<stop stop-color="white"/>
<stop offset="1" stop-color="white"/>
</linearGradient>
<linearGradient id="paint41_linear_312_639" x1="1.22029e+06" y1="494617" x2="1.22607e+06" y2="479640" gradientUnits="userSpaceOnUse">
<stop stop-color="white"/>
<stop offset="1" stop-color="white"/>
</linearGradient>
<linearGradient id="paint42_linear_312_639" x1="1.22059e+06" y1="493836" x2="1.22616e+06" y2="479424" gradientUnits="userSpaceOnUse">
<stop stop-color="white"/>
<stop offset="1" stop-color="white"/>
</linearGradient>
<linearGradient id="paint43_linear_312_639" x1="1.2209e+06" y1="493049" x2="1.22624e+06" y2="479208" gradientUnits="userSpaceOnUse">
<stop stop-color="white"/>
<stop offset="1" stop-color="white"/>
</linearGradient>
<linearGradient id="paint44_linear_312_639" x1="1.22122e+06" y1="492221" x2="1.22633e+06" y2="478980" gradientUnits="userSpaceOnUse">
<stop stop-color="white"/>
<stop offset="1" stop-color="white"/>
</linearGradient>
<linearGradient id="paint45_linear_312_639" x1="1.22154e+06" y1="491396" x2="1.22642e+06" y2="478754" gradientUnits="userSpaceOnUse">
<stop stop-color="white"/>
<stop offset="1" stop-color="white"/>
</linearGradient>
<linearGradient id="paint46_linear_312_639" x1="1.22179e+06" y1="490566" x2="1.22644e+06" y2="478510" gradientUnits="userSpaceOnUse">
<stop stop-color="white"/>
<stop offset="1" stop-color="white"/>
</linearGradient>
<linearGradient id="paint47_linear_312_639" x1="1.22222e+06" y1="489741" x2="1.22663e+06" y2="478313" gradientUnits="userSpaceOnUse">
<stop stop-color="white"/>
<stop offset="1" stop-color="white"/>
</linearGradient>
<linearGradient id="paint48_linear_312_639" x1="1.22239e+06" y1="489192" x2="1.22665e+06" y2="478149" gradientUnits="userSpaceOnUse">
<stop stop-color="white"/>
<stop offset="1" stop-color="white"/>
</linearGradient>
<linearGradient id="paint49_linear_312_639" x1="1.22264e+06" y1="488535" x2="1.22672e+06" y2="477970" gradientUnits="userSpaceOnUse">
<stop stop-color="white"/>
<stop offset="1" stop-color="white"/>
</linearGradient>
<linearGradient id="paint50_linear_312_639" x1="1.22287e+06" y1="488023" x2="1.2268e+06" y2="477837" gradientUnits="userSpaceOnUse">
<stop stop-color="white"/>
<stop offset="1" stop-color="white"/>
</linearGradient>
<linearGradient id="paint51_linear_312_639" x1="1.223e+06" y1="487591" x2="1.22682e+06" y2="477711" gradientUnits="userSpaceOnUse">
<stop stop-color="white"/>
<stop offset="1" stop-color="white"/>
</linearGradient>
<linearGradient id="paint52_linear_312_639" x1="1.2231e+06" y1="487223" x2="1.22681e+06" y2="477598" gradientUnits="userSpaceOnUse">
<stop stop-color="white"/>
<stop offset="1" stop-color="white"/>
</linearGradient>
<linearGradient id="paint53_linear_312_639" x1="1.22323e+06" y1="486931" x2="1.22686e+06" y2="477523" gradientUnits="userSpaceOnUse">
<stop stop-color="white"/>
<stop offset="1" stop-color="white"/>
</linearGradient>
<linearGradient id="paint54_linear_312_639" x1="1.22332e+06" y1="486685" x2="1.22688e+06" y2="477452" gradientUnits="userSpaceOnUse">
<stop stop-color="white"/>
<stop offset="1" stop-color="white"/>
</linearGradient>
<linearGradient id="paint55_linear_312_639" x1="1.22333e+06" y1="486699" x2="1.2269e+06" y2="477458" gradientUnits="userSpaceOnUse">
<stop stop-color="white"/>
<stop offset="1" stop-color="white"/>
</linearGradient>
<linearGradient id="paint56_linear_312_639" x1="1.22325e+06" y1="487050" x2="1.22691e+06" y2="477563" gradientUnits="userSpaceOnUse">
<stop stop-color="white"/>
<stop offset="1" stop-color="white"/>
</linearGradient>
<linearGradient id="paint57_linear_312_639" x1="1.2231e+06" y1="487383" x2="1.22685e+06" y2="477642" gradientUnits="userSpaceOnUse">
<stop stop-color="white"/>
<stop offset="1" stop-color="white"/>
</linearGradient>
<linearGradient id="paint58_linear_312_639" x1="1.22295e+06" y1="487728" x2="1.22681e+06" y2="477729" gradientUnits="userSpaceOnUse">
<stop stop-color="white"/>
<stop offset="1" stop-color="white"/>
</linearGradient>
<linearGradient id="paint59_linear_312_639" x1="1.22277e+06" y1="488071" x2="1.22673e+06" y2="477806" gradientUnits="userSpaceOnUse">
<stop stop-color="white"/>
<stop offset="1" stop-color="white"/>
</linearGradient>
<linearGradient id="paint60_linear_312_639" x1="1.22265e+06" y1="488407" x2="1.22671e+06" y2="477896" gradientUnits="userSpaceOnUse">
<stop stop-color="white"/>
<stop offset="1" stop-color="white"/>
</linearGradient>
<linearGradient id="paint61_linear_312_639" x1="1.22255e+06" y1="488742" x2="1.2267e+06" y2="477991" gradientUnits="userSpaceOnUse">
<stop stop-color="white"/>
<stop offset="1" stop-color="white"/>
</linearGradient>
<linearGradient id="paint62_linear_312_639" x1="1.22244e+06" y1="489042" x2="1.22667e+06" y2="478069" gradientUnits="userSpaceOnUse">
<stop stop-color="white"/>
<stop offset="1" stop-color="white"/>
</linearGradient>
<linearGradient id="paint63_linear_312_639" x1="1.22234e+06" y1="489321" x2="1.22665e+06" y2="478145" gradientUnits="userSpaceOnUse">
<stop stop-color="white"/>
<stop offset="1" stop-color="white"/>
</linearGradient>
<linearGradient id="paint64_linear_312_639" x1="1.22223e+06" y1="489581" x2="1.22662e+06" y2="478211" gradientUnits="userSpaceOnUse">
<stop stop-color="white"/>
<stop offset="1" stop-color="white"/>
</linearGradient>
<linearGradient id="paint65_linear_312_639" x1="1.22216e+06" y1="489783" x2="1.2266e+06" y2="478266" gradientUnits="userSpaceOnUse">
<stop stop-color="white"/>
<stop offset="1" stop-color="white"/>
</linearGradient>
<linearGradient id="paint66_linear_312_639" x1="1.22209e+06" y1="489956" x2="1.22659e+06" y2="478312" gradientUnits="userSpaceOnUse">
<stop stop-color="white"/>
<stop offset="1" stop-color="white"/>
</linearGradient>
<linearGradient id="paint67_linear_312_639" x1="1.22202e+06" y1="490048" x2="1.22654e+06" y2="478327" gradientUnits="userSpaceOnUse">
<stop stop-color="white"/>
<stop offset="1" stop-color="white"/>
</linearGradient>
<linearGradient id="paint68_linear_312_639" x1="1.22212e+06" y1="489987" x2="1.22662e+06" y2="478329" gradientUnits="userSpaceOnUse">
<stop stop-color="white"/>
<stop offset="1" stop-color="white"/>
</linearGradient>
</defs>
</svg>
