<svg width="806" height="875" viewBox="0 0 806 875" fill="none" xmlns="http://www.w3.org/2000/svg">
<path d="M309.998 1454.66C474.968 1108.58 639.938 762.495 804.908 416.413" stroke="url(#paint0_linear_312_709)" stroke-opacity="0.05" stroke-width="2.16035" stroke-miterlimit="10"/>
<path d="M285.54 1443C369.257 1267.84 448.38 1090.59 526.949 913.032C560.931 836.199 598.021 760.21 638.689 686.574C689.589 594.392 729.497 496.918 780.436 404.782" stroke="url(#paint1_linear_312_709)" stroke-opacity="0.05" stroke-width="2.16035" stroke-miterlimit="10"/>
<path d="M261.441 1431.51C285.111 1381.86 309.658 1332.6 332.897 1282.75C353.67 1238.2 366.57 1190.02 386.3 1144.99C423.057 1061.11 465.494 979.955 501.77 895.854C533.965 821.204 561.968 743.627 608.062 675.664C634.997 636.086 658.139 595.239 681.228 553.784C710.047 502.044 726.26 444.374 756.351 393.267" stroke="url(#paint2_linear_312_709)" stroke-opacity="0.05" stroke-width="2.16035" stroke-miterlimit="10"/>
<path d="M237.673 1420.18C261.002 1371.24 286.268 1323.06 307.568 1273.17C327.579 1226.29 336.005 1174.2 354.469 1126.62C387.735 1040.88 444.591 967.186 480.856 882.982C512.815 808.911 524.855 726.609 579.405 663.208C611.291 626.149 640.034 589.211 663.126 547.58C692.19 495.071 701.846 433.639 732.583 381.937" stroke="url(#paint3_linear_312_709)" stroke-opacity="0.05" stroke-width="2.16035" stroke-miterlimit="10"/>
<path d="M214.365 1409.07C237.272 1361.02 263.338 1314.04 282.102 1264.05C300.866 1214.07 304.444 1157.68 321.134 1106.88C336.307 1060.71 358.255 1018.51 391.021 981.008C420.396 947.397 446.218 913.456 463.68 873.777C478.97 838.992 482.413 801.214 487.491 762.082C493.287 717.295 518.221 680.222 552.66 649.53C590.586 615.757 626.594 584.016 649.1 541.796C677.507 488.55 679.059 423.255 709.275 370.827" stroke="url(#paint4_linear_312_709)" stroke-opacity="0.05" stroke-width="2.16035" stroke-miterlimit="10"/>
<path d="M191.387 1398.12C213.799 1351.1 240.578 1305.29 256.509 1255.28C273.545 1201.86 272.16 1140.69 286.679 1086.2C299.042 1039.36 325.226 998.754 364.478 965.559C399.275 935.808 431.684 906.457 449.391 867.532C465.786 831.486 460.572 789.316 460.426 746.668C460.263 698.261 486.022 662.715 527.472 634.878C571.942 605.065 616.795 579.355 638.209 536.251C665.1 482.167 657.505 413.166 686.314 359.881" stroke="url(#paint5_linear_312_709)" stroke-opacity="0.05" stroke-width="2.16035" stroke-miterlimit="10"/>
<path d="M168.769 1387.34C190.553 1341.39 218.002 1296.75 231.015 1246.81C246.039 1189.52 239.61 1123.49 251.648 1065.02C261.763 1015.95 291.165 980.172 338.524 950.772C379.083 925.607 419.132 901.597 437.311 863.588C455.238 825.98 440.201 777.756 434.596 731.285C428.219 678.35 453.586 644.43 503.639 619.535C554.571 594.192 609.646 574.885 629.645 530.814C654.476 475.846 636.903 403.319 663.679 349.092" stroke="url(#paint6_linear_312_709)" stroke-opacity="0.05" stroke-width="2.16035" stroke-miterlimit="10"/>
<path d="M146.513 1376.73C167.694 1331.91 195.365 1288.25 205.751 1238.62C218.586 1177.33 207.105 1106.54 216.56 1043.88C224.255 992.908 257.141 961.157 313.198 936.744C359.451 916.603 407.911 898.266 426.764 861.339C446.697 822.316 421.133 766.384 409.914 716.157C396.956 658.156 421.179 625.452 480.952 603.863C537.875 583.304 604.444 570.564 622.592 525.382C645.029 469.511 617.036 393.707 641.416 338.497" stroke="url(#paint7_linear_312_709)" stroke-opacity="0.05" stroke-width="2.16035" stroke-miterlimit="10"/>
<path d="M124.619 1366.29C145.204 1322.6 172.893 1279.83 180.914 1230.55C191.532 1165.32 175.183 1089.85 182.009 1023.14C187.438 969.978 223.389 942.378 288.559 923.389C340.098 908.369 397.311 895.876 417.1 860.032C439.318 819.727 402.396 754.868 386.254 701.26C377.892 673.224 371.154 644.662 385.151 625.116C398.865 605.993 428.373 595.762 459.295 588.062C521.525 572.493 600.116 565.891 616.321 519.791C636.261 463.022 597.726 384.281 619.582 328.062" stroke="url(#paint8_linear_312_709)" stroke-opacity="0.05" stroke-width="2.16035" stroke-miterlimit="10"/>
<path d="M103.118 1356C123.149 1313.35 150.632 1271.39 156.626 1222.59C165.147 1153.68 144.112 1073.86 148.428 1003.36C151.803 947.95 190.515 924.249 264.579 910.852C320.737 900.698 386.64 894.011 407.536 859.102C432.251 817.793 383.904 743.427 363.434 686.879C352.704 657.254 341.851 625.05 357.186 604.983C371.558 586.173 404.96 578.055 438.247 572.464C504.636 561.329 595.462 561.01 609.829 513.901C627.374 456.274 578.516 374.939 598.019 317.776" stroke="url(#paint9_linear_312_709)" stroke-opacity="0.05" stroke-width="2.16035" stroke-miterlimit="10"/>
<path d="M81.9843 1345.92C101.481 1304.25 128.648 1262.96 133.094 1214.74C139.729 1142.55 114.343 1058.78 116.343 984.932C117.117 956.817 121.652 931.983 150.537 917.853C174.077 906.343 207.668 902.358 241.263 899.082C301.332 893.207 375.33 892.052 397.401 857.809C424.548 815.713 365.426 732.087 341.307 673.039C328.654 642.073 313.927 606.358 330.44 585.808C345.383 567.156 382.327 561.044 417.688 557.363C487.402 550.087 589.581 555.701 602.384 507.555C617.881 449.19 559.245 365.601 576.812 307.631" stroke="url(#paint10_linear_312_709)" stroke-opacity="0.05" stroke-width="2.16035" stroke-miterlimit="10"/>
<path d="M61.1937 1336C80.2585 1295.2 107.107 1254.49 110.413 1206.89C115.603 1132.1 86.1776 1045.04 86.3615 968.438C86.4332 939.892 90.0503 914.699 121.313 901.844C146.776 891.463 182.914 889.497 218.709 888.208C282.001 885.896 362.92 889.562 386.064 855.609C400.863 833.915 384.23 797.079 370.286 765.604C354.817 730.685 335.287 694.892 319.781 659.965C305.546 627.874 287.71 589.287 305.285 568.288C320.809 549.727 360.436 545.266 397.551 543.155C470.093 539.085 581.621 549.97 593.263 500.748C607.252 441.78 539.723 356.279 556.038 297.72" stroke="url(#paint11_linear_312_709)" stroke-opacity="0.05" stroke-width="2.16035" stroke-miterlimit="10"/>
<path d="M40.7816 1326.26C59.4993 1286.19 86.1439 1245.95 88.7862 1198.98C93.1089 1122.41 60.0684 1032.78 58.9097 954.255C58.4531 925.59 61.6397 899.989 94.255 888.062C120.957 878.298 159.337 877.976 196.847 878.168C262.835 878.495 348.83 885.899 372.812 851.797C388.328 829.657 369.704 791.031 354.547 758.588C337.414 721.956 315.924 684.433 298.758 647.785C283.263 614.739 263.453 574.327 281.662 552.843C297.507 534.16 338.886 530.932 377.484 530.068C452.505 528.374 570.352 543.564 581.693 493.323C595.074 434.064 519.671 346.845 535.758 288.044" stroke="url(#paint12_linear_312_709)" stroke-opacity="0.05" stroke-width="2.16035" stroke-miterlimit="10"/>
<path d="M20.7353 1316.69C39.2342 1277.2 65.8667 1237.28 68.3656 1190.95C72.5351 1113.65 36.3355 1022.31 34.5557 942.884C33.948 914.536 37.1825 888.454 69.7945 876.914C97.0952 867.25 137.052 867.936 175.733 869.014C244.077 870.959 332.613 880.565 356.785 845.598C372.489 822.894 353.584 784.054 337.43 750.782C319.133 712.994 296.196 674.276 277.863 636.479C261.46 602.673 241.192 561.91 259.592 539.897C275.459 520.915 317.278 518.286 357.115 518.252C434.915 518.175 554.583 536.188 566.528 484.934C580.336 425.711 498.463 336.956 515.692 278.426" stroke="url(#paint13_linear_312_709)" stroke-opacity="0.05" stroke-width="2.16035" stroke-miterlimit="10"/>
<path d="M1.01497 1307.28C19.1493 1267.8 46.4891 1228.38 48.5966 1182.07C52.0468 1104.96 13.54 1013.47 10.7635 934.189C9.77962 905.742 13.4018 879.861 45.7439 868.211C73.2703 858.327 113.762 858.905 152.937 859.962C222.323 861.838 311.963 871.625 337.424 836.662C353.852 814.09 335.256 775.575 318.736 742.013C299.996 703.969 276.381 664.981 257.621 626.937C240.773 592.794 220.887 552.373 239.837 530.392C256.167 511.454 298 508.965 338.212 509.074C416.959 509.297 534.958 527.258 547.67 475.918C562.322 416.912 477.488 327.259 495.925 269.03" stroke="url(#paint14_linear_312_709)" stroke-opacity="0.05" stroke-width="2.16035" stroke-miterlimit="10"/>
<path d="M-18.2633 1298.08C-0.510159 1258.21 28.5923 1219.8 29.631 1172.81C31.3219 1096.26 -8.92561 1005.58 -13.4225 926.907C-15.0976 897.794 -11.2477 872.748 21.3936 860.851C49.213 850.69 89.6178 850.563 128.764 850.961C197.928 851.695 288.879 860.718 316.954 827.001C334.97 805.372 316.333 766.731 299.744 733.358C281.014 695.673 257.204 657.008 238.439 619.314C221.422 585.145 201.783 544.84 222.014 523.515C239.414 505.167 281.852 502.638 321.805 502.358C399.329 501.804 515.817 517.939 528.541 467.295C543.37 408.213 458.007 318.149 476.637 259.853" stroke="url(#paint15_linear_312_709)" stroke-opacity="0.05" stroke-width="2.16035" stroke-miterlimit="10"/>
<path d="M-37.2081 1289.03C-19.5457 1248.85 11.951 1211.72 12.0839 1164C12.2919 1088.32 -29.5684 998.739 -35.4797 921.002C-37.7689 891.357 -33.5384 867.121 -1.05625 854.838C26.7726 844.319 66.6251 843.151 105.79 842.875C174.616 842.37 265.904 849.969 296.328 817.416C315.701 796.708 297.599 758.552 281.035 725.421C262.429 688.282 238.609 650.188 220.013 613.07C202.916 578.942 184.067 539.307 205.411 518.653C223.889 500.792 266.633 498.002 306.409 497.205C382.811 495.62 497.27 509.495 509.957 459.267C524.948 399.971 439.018 309.362 457.794 250.844" stroke="url(#paint16_linear_312_709)" stroke-opacity="0.05" stroke-width="2.16035" stroke-miterlimit="10"/>
<path d="M-55.7914 1280.15C-37.9491 1239.72 -3.48765 1204.03 -4.16101 1155.59C-5.16911 1081.07 -48.5232 992.801 -55.7266 916.209C-58.5464 886.196 -53.7851 862.708 -21.8383 849.94C5.77754 838.895 45.0017 836.675 83.8761 835.527C152.24 833.411 242.898 839.454 275.609 807.859C296.11 788.042 279.087 750.923 262.608 718.08C244.353 681.727 220.565 644.329 202.27 607.975C185.119 573.918 167.569 535.495 189.875 515.486C209.405 498.002 252.202 494.76 291.765 493.268C367.098 490.413 479.096 501.664 491.715 451.705C506.783 392.038 420.293 300.782 439.179 241.909" stroke="url(#paint17_linear_312_709)" stroke-opacity="0.05" stroke-width="2.16035" stroke-miterlimit="10"/>
<path d="M-74.0175 1271.46C-55.7739 1230.82 -17.9004 1196.77 -19.2437 1147.58C-21.2365 1074.44 -66.0504 987.631 -74.1832 912.481C-77.4865 882.256 -72.1066 859.417 -41.0252 846.095C-13.7999 834.43 24.6246 831.094 62.8585 828.835C130.584 824.841 219.858 829.091 254.709 798.339C296.784 761.235 215.797 664.868 185.036 603.884C167.896 569.93 152.052 533.133 175.241 513.811C195.873 496.64 238.534 492.837 277.892 490.548C352.192 486.219 461.383 494.557 473.898 444.69C489.01 384.549 401.934 292.535 420.893 233.21" stroke="url(#paint18_linear_312_709)" stroke-opacity="0.05" stroke-width="2.16035" stroke-miterlimit="10"/>
<path d="M-91.8613 1262.93C-73.0384 1222.13 -31.3808 1189.88 -33.235 1139.95C-35.997 1068.38 -82.016 983.25 -91.0337 909.661C-94.7365 879.342 -88.6474 857.089 -58.7021 843.146C-32.0412 830.76 5.34404 826.177 42.9373 822.808C109.746 816.801 196.981 818.938 233.963 788.963C277.658 753.498 198.696 660.583 168.391 600.674C151.674 567.568 136.363 530.964 161.482 513.393C184.793 497.075 224.867 492.012 264.739 488.773C337.986 482.801 444.099 487.991 456.516 438.076C471.637 377.365 383.965 284.527 402.934 224.632" stroke="url(#paint19_linear_312_709)" stroke-opacity="0.05" stroke-width="2.16035" stroke-miterlimit="10"/>
<path d="M-109.361 1254.58C-89.8466 1213.64 -44.0591 1183.3 -46.4727 1132.55C-49.7977 1062.71 -97.0131 979.332 -106.627 907.501C-123.377 782.719 129.606 842.381 213.344 779.7C258.51 745.928 182.079 657.016 152.424 598.24C135.844 565.313 122.838 530.94 148.585 514.04C173.098 497.95 212.719 492.106 252.345 487.856C324.609 480.14 427.378 481.976 439.691 431.897C454.811 370.556 366.534 276.828 385.553 216.32" stroke="url(#paint20_linear_312_709)" stroke-opacity="0.05" stroke-width="2.16035" stroke-miterlimit="10"/>
<path d="M-126.482 1246.4C-106.088 1205.39 -56.0742 1176.98 -58.8986 1125.44C-62.6196 1057.45 -110.903 975.888 -121.02 905.915C-138.757 783.077 106.621 830.381 192.856 770.546C239.312 738.343 165.947 654.042 136.88 596.361C120.357 563.568 110.029 531.702 136.272 515.454C161.998 499.571 201.107 492.853 240.453 487.541C311.599 477.939 411.006 476.375 423.198 426C438.234 363.946 349.418 269.317 368.436 208.135" stroke="url(#paint21_linear_312_709)" stroke-opacity="0.05" stroke-width="2.16035" stroke-miterlimit="10"/>
<path d="M-143.24 1238.39C-121.943 1197.31 -67.5488 1170.88 -70.6881 1118.56C-74.6537 1052.49 -123.951 972.835 -134.374 904.734C-152.873 783.958 83.9199 818.551 172.659 761.546C220.347 730.904 150.233 651.506 121.77 594.883C105.361 562.233 97.8512 533.046 124.415 517.394C151.263 501.655 189.984 494.099 228.962 487.656C299.007 476.13 394.924 471.098 407.012 420.39C421.951 357.609 332.582 262.025 351.591 200.14" stroke="url(#paint22_linear_312_709)" stroke-opacity="0.05" stroke-width="2.16035" stroke-miterlimit="10"/>
<path d="M-159.639 1230.56C-137.426 1189.42 -78.6178 1164.94 -81.9725 1111.85C-86.0505 1047.7 -136.281 969.922 -146.903 903.761C-165.964 785.097 61.6857 806.961 152.8 752.716C201.692 723.613 134.922 649.26 107.045 593.651C90.7593 561.165 86.2 534.632 113.141 519.629C141.145 504.044 179.409 495.588 218.027 488.035C286.975 474.58 379.378 466.086 391.358 414.972C406.236 351.428 316.349 254.942 335.272 192.308" stroke="url(#paint23_linear_312_709)" stroke-opacity="0.05" stroke-width="2.16035" stroke-miterlimit="10"/>
<path d="M-175.656 1222.9C-152.551 1181.71 -89.417 1159.12 -92.936 1105.36C-97.0166 1043.12 -148.114 967.201 -158.818 902.948C-178.245 786.278 39.902 795.577 133.376 744.042C183.442 716.454 120.013 647.153 92.6573 592.482C76.4944 560.161 74.9065 536.239 102.101 521.888C131.28 506.464 169.163 497.154 207.354 488.469C275.088 473.073 364.112 461.215 376.029 409.682C390.837 345.397 300.304 247.939 319.301 184.642" stroke="url(#paint24_linear_312_709)" stroke-opacity="0.05" stroke-width="2.16035" stroke-miterlimit="10"/>
<path d="M-191.332 1215.41C-167.351 1174.12 -100.076 1153.38 -103.676 1098.94C-107.672 1038.55 -159.566 964.433 -170.262 902.024C-189.93 787.3 18.5679 784.426 114.392 735.621C165.702 709.484 105.271 645.108 78.5635 591.321C62.6162 559.182 63.7463 537.768 91.2392 524.019C121.584 508.771 159.183 498.662 196.909 488.879C263.459 471.609 349.138 456.484 360.946 404.502C375.687 339.512 284.596 241.151 303.571 177.18" stroke="url(#paint25_linear_312_709)" stroke-opacity="0.05" stroke-width="2.16035" stroke-miterlimit="10"/>
<path d="M-206.627 1208.1C-181.878 1166.68 -110.698 1147.65 -114.314 1092.61C-118.155 1033.97 -170.842 961.516 -181.433 900.874C-191.716 842.042 -134.173 812.098 -76.9326 789.01C-21.7214 766.751 43.8838 751.844 95.9908 727.379C148.796 702.593 90.4261 642.906 64.6995 589.896C30.569 519.519 122.035 507.702 186.621 488.965C252.005 469.953 334.482 451.727 346.208 399.325C360.917 333.682 269.27 234.455 288.267 169.848" stroke="url(#paint26_linear_312_709)" stroke-opacity="0.05" stroke-width="2.16035" stroke-miterlimit="10"/>
<path d="M-221.58 1200.96C-196.161 1159.36 -121.477 1141.99 -125.009 1086.31C-128.648 1029.28 -182.019 958.384 -192.483 899.297C-202.86 840.916 -146.176 809.05 -92.0151 784.255C-38.9701 759.981 23.9791 742.817 78.236 719.386C132.493 695.955 76.3987 640.423 51.0611 588.121C17.7678 519.373 115.391 508.181 176.455 488.623C240.735 468.032 320.131 446.878 331.833 394.145C346.515 327.924 254.325 227.889 273.317 162.74" stroke="url(#paint27_linear_312_709)" stroke-opacity="0.05" stroke-width="2.16035" stroke-miterlimit="10"/>
<path d="M-236.152 1194C-210.159 1152.16 -132.467 1136.28 -135.904 1080.01C-139.283 1024.42 -193.269 954.906 -203.682 897.277C-214.069 839.297 -158.244 805.678 -106.854 779.332C-55.8519 753.208 4.78574 733.995 61.165 711.655C87.7548 701.112 95.0871 687.592 81.1395 658.495C69.8001 634.845 49.0342 609.514 37.553 585.823C22.2067 554.201 30.417 538.755 58.731 526.795C92.7862 512.439 129.856 500.309 166.285 487.66C229.386 465.649 305.993 441.882 317.699 388.886C332.429 322.183 239.665 221.406 258.749 155.769" stroke="url(#paint28_linear_312_709)" stroke-opacity="0.05" stroke-width="2.16035" stroke-miterlimit="10"/>
<path d="M-250.379 1187.2C-224.191 1144.95 -143.832 1130.49 -147.104 1073.67C-150.241 1019.27 -205.071 950.846 -215.108 894.458C-225.371 836.812 -170.464 801.649 -121.378 774.001C-72.2925 746.353 -13.4774 725.378 45.0261 704.21C72.0603 694.427 81.0783 682.153 67.1701 653.269C56.1395 630.368 35.4602 605.787 24.2809 582.859C8.91588 551.361 18.9489 537.084 47.6993 525.774C83.0293 511.876 120.228 499.347 156.187 485.908C218.195 462.72 292.299 436.584 304.007 383.5C318.813 316.427 225.507 215.011 244.665 149.047" stroke="url(#paint29_linear_312_709)" stroke-opacity="0.05" stroke-width="2.16035" stroke-miterlimit="10"/>
<path d="M-264.212 1180.58C-237.956 1137.86 -155.643 1124.63 -158.739 1067.27C-161.656 1013.77 -217.541 946.158 -226.969 890.778C-236.766 833.424 -183.015 797.046 -135.893 768.144C-88.4123 738.996 -31.0924 716.884 29.5017 696.916C57.0312 687.829 67.3741 676.372 53.4006 647.626C42.5624 625.294 21.8172 601.274 10.7941 578.907C-4.69777 547.464 6.72552 533.867 36.0514 523.213C72.6642 509.882 110.066 497.095 145.698 483.031C206.639 458.991 278.546 430.78 290.319 377.772C305.255 310.468 211.397 208.515 230.712 142.308" stroke="url(#paint30_linear_312_709)" stroke-opacity="0.05" stroke-width="2.16035" stroke-miterlimit="10"/>
<path d="M-277.702 1174.14C-251.694 1130.79 -168.06 1118.64 -170.982 1060.75C-173.648 1007.9 -230.189 940.863 -239.508 886.145C-249.224 828.999 -195.797 791.652 -150.317 761.834C-104.109 731.549 -47.7389 708.763 15.0178 690.056C43.2282 681.656 54.3945 670.504 40.2284 641.781C29.3842 619.8 8.45078 596.133 -2.56804 574.095C-18.3079 542.622 -6.07474 529.146 24.0418 519.16C62.0441 506.554 99.7166 493.666 135.087 479.132C195.072 454.477 265.123 424.656 276.968 371.921C292.12 304.543 197.693 202.177 217.209 135.888" stroke="url(#paint31_linear_312_709)" stroke-opacity="0.05" stroke-width="2.16035" stroke-miterlimit="10"/>
<path d="M-290.84 1167.85C-265.166 1124.06 -180.983 1112.54 -184.001 1054.25C-186.719 1001.55 -243.288 934.744 -252.504 880.233C-262.142 823.178 -208.013 785.882 -163.068 755.791C-117.265 725.127 -61.2364 702.337 1.74161 683.674C29.9211 675.34 40.5192 663.686 26.4426 635.156C15.6688 613.324 -5.06888 589.838 -15.8919 567.983C-31.3669 536.715 -19.1277 522.889 11.4912 513.372C50.3296 501.297 88.213 488.474 123.405 473.723C182.567 448.932 252.428 418.198 263.686 365.634C278.19 298.053 185.88 196.324 204.119 129.622" stroke="url(#paint32_linear_312_709)" stroke-opacity="0.05" stroke-width="2.16035" stroke-miterlimit="10"/>
<path d="M-303.77 1161.67C-278.244 1117.68 -193.693 1106.49 -196.955 1047.95C-199.901 995.225 -255.782 928.54 -264.804 874.087C-274.244 817.126 -218.873 780.564 -173.794 750.617C-127.925 720.153 -72.0443 697.505 -11.0232 677.572C46.7287 658.701 -5.43623 610.838 -28.6939 561.535C-43.232 530.715 -31.2077 516.662 -0.592526 507.365C38.4409 495.515 76.238 482.705 111.164 467.835C169.531 442.975 239.929 411.665 250.073 358.986C263.137 291.038 175.77 190.957 191.398 123.514" stroke="url(#paint33_linear_312_709)" stroke-opacity="0.05" stroke-width="2.16035" stroke-miterlimit="10"/>
<path d="M-316.501 1155.58C-291.042 1111.4 -206.062 1100.53 -209.469 1041.75C-212.547 988.958 -267.61 922.504 -276.359 868.155C-285.569 811.303 -229.085 775.457 -183.956 745.614C-138.149 715.323 -82.505 692.748 -23.4943 671.574C31.5914 651.821 -19.169 603.805 -40.6905 555.304C-54.193 524.977 -42.2315 510.717 -11.6659 501.608C27.4604 489.945 65.0259 477.112 99.5535 462.062C157.066 437.006 227.239 404.943 236.374 352.261C248.21 284.099 165.904 185.715 179.182 117.7" stroke="url(#paint34_linear_312_709)" stroke-opacity="0.05" stroke-width="2.16035" stroke-miterlimit="10"/>
<path d="M-329.003 1149.6C-303.567 1105.21 -218.092 1094.66 -221.532 1035.65C-224.601 982.929 -278.766 916.664 -287.205 862.427C-295.922 805.81 -238.712 770.514 -193.604 740.758C-147.976 710.63 -92.6523 688.008 -35.7755 665.64C16.7011 644.97 -32.4117 596.926 -52.2024 549.152C-64.5466 519.315 -52.5266 504.933 -22.0463 495.961C17.0641 484.458 54.3096 471.535 88.2907 456.277C144.864 430.906 214.09 397.993 222.4 345.308C233.191 277.01 156.098 180.429 167.232 111.959" stroke="url(#paint35_linear_312_709)" stroke-opacity="0.05" stroke-width="2.16035" stroke-miterlimit="10"/>
<path d="M-341.292 1143.73C-315.796 1099.13 -229.849 1088.9 -233.192 1029.64C-236.147 977.018 -289.427 910.927 -297.29 856.921C-305.504 800.561 -247.678 765.877 -202.659 736.096C-157.305 706.121 -102.418 683.441 -47.7308 659.826C2.17896 638.278 -45.0519 590.263 -62.9 543.239C-74.0463 513.894 -61.8165 499.452 -31.4603 490.571C7.69763 479.326 44.125 465.998 77.6612 450.644C133.215 424.831 200.902 390.999 208.461 338.283C218.342 270.03 146.597 175.263 155.821 106.528" stroke="url(#paint36_linear_312_709)" stroke-opacity="0.05" stroke-width="2.16035" stroke-miterlimit="10"/>
<path d="M-353.346 1137.95C-327.751 1093.15 -241.235 1083.21 -244.435 1023.73C-247.226 971.233 -299.479 905.357 -306.759 851.566C-314.339 795.527 -256.09 761.31 -211.224 731.553C-166.24 701.676 -111.898 678.87 -59.4665 654.064C-12.0707 631.654 -57.2512 583.696 -73.021 537.432C-82.8569 508.597 -70.3221 494.15 -40.1161 485.33C-1.21044 474.145 34.7142 460.689 67.4673 445.033C121.93 418.673 187.329 383.759 194.393 331.108C203.533 262.97 137.267 170.126 144.747 101.197" stroke="url(#paint37_linear_312_709)" stroke-opacity="0.05" stroke-width="2.16035" stroke-miterlimit="10"/>
<path d="M-365.141 1132.31C-339.415 1087.27 -252.328 1077.62 -255.203 1017.97C-257.729 965.633 -308.882 899.99 -315.514 846.49C-322.414 790.801 -263.882 757.047 -219.247 727.225C-174.805 697.469 -121.028 674.411 -70.9269 648.442C-26.0054 625.171 -68.9174 577.321 -82.4966 531.836C-90.9495 503.526 -78.0077 489.114 -47.8724 480.358C-9.30722 469.214 26.023 455.612 57.8954 439.638C111.127 412.603 173.8 376.593 180.426 323.972C188.993 256.065 128.293 165.211 134.253 96.2121" stroke="url(#paint38_linear_312_709)" stroke-opacity="0.05" stroke-width="2.16035" stroke-miterlimit="10"/>
<path d="M-376.707 1126.78C-350.775 1081.52 -263.029 1072.14 -265.643 1012.28C-267.788 960.157 -317.755 894.778 -323.66 841.572C-329.785 786.288 -271.137 752.925 -226.825 723.063C-182.85 693.44 -129.883 670.049 -82.1416 642.937C-39.6745 618.805 -80.1661 571.083 -91.4292 526.41C-98.3773 498.668 -84.9956 484.306 -55.0686 475.521C-16.9007 464.384 17.7528 450.585 48.631 434.231C100.662 406.456 160.051 369.253 166.335 316.672C174.37 249.034 119.425 160.285 123.99 91.2934" stroke="url(#paint39_linear_312_709)" stroke-opacity="0.05" stroke-width="2.16035" stroke-miterlimit="10"/>
<path d="M-388.008 1121.38C-361.844 1075.88 -273.444 1066.82 -275.544 1006.77C-277.374 954.836 -326.097 889.723 -331.192 836.849C-336.462 782.017 -277.847 749.019 -233.876 719.066C-190.481 689.519 -138.386 665.757 -93.062 637.537C-52.9307 612.593 -90.8956 564.986 -99.7537 521.15C-105.239 493.937 -91.2204 479.719 -61.6427 470.822C-23.9604 459.657 9.93811 445.643 39.7543 428.902C90.4177 400.272 146.1 361.832 152.141 309.295C159.97 242.09 110.696 155.451 114.046 86.5534" stroke="url(#paint40_linear_312_709)" stroke-opacity="0.05" stroke-width="2.16035" stroke-miterlimit="10"/>
<path d="M-399.031 1116.11C-372.595 1070.38 -283.517 1061.58 -285.127 1001.4C-286.437 949.684 -333.915 884.837 -338.131 832.321C-342.486 777.978 -284.052 745.318 -240.442 715.193C-197.701 685.706 -146.573 661.518 -103.686 632.19C-65.9565 606.402 -101.173 558.955 -107.504 515.996C-111.426 489.351 -96.7729 475.286 -67.3008 466.355C-30.1637 455.143 2.90113 440.882 31.5532 423.719C80.7506 394.187 132.431 354.494 138.243 301.972C145.74 235.166 102.439 150.808 104.706 82.0664" stroke="url(#paint41_linear_312_709)" stroke-opacity="0.05" stroke-width="2.16035" stroke-miterlimit="10"/>
<path d="M-409.724 1110.99C-383.032 1065.02 -293.272 1056.49 -294.269 996.076C-295.133 944.654 -341.224 880.114 -344.516 827.985C-347.924 774.155 -289.734 741.795 -246.646 711.536C-204.605 682.079 -154.559 657.41 -114.113 627.024C-78.6762 600.418 -111.137 553.073 -114.833 511.06C-117.157 485 -101.831 471.087 -72.5032 462.079C-35.9691 450.798 -3.80211 436.27 23.6133 418.669C71.2845 388.064 118.48 347.03 124.291 294.595C131.69 228.291 94.3049 146.249 95.6076 77.7114" stroke="url(#paint42_linear_312_709)" stroke-opacity="0.05" stroke-width="2.16035" stroke-miterlimit="10"/>
<path d="M-420.237 1105.96C-393.15 1059.76 -302.679 1051.47 -303.05 990.927C-303.342 939.785 -348.04 875.538 -350.365 823.835C-352.738 770.542 -294.921 738.456 -252.254 708.067C-210.933 678.638 -162.084 653.434 -124.09 622.012C-90.8565 594.612 -120.413 547.395 -121.412 506.367C-122.085 480.908 -105.941 467.226 -76.8792 458.055C-40.9992 446.681 -9.78661 431.863 16.3284 413.808C62.3515 382.089 104.881 339.716 110.648 287.331C117.916 221.513 86.6595 141.932 87.1161 73.6463" stroke="url(#paint43_linear_312_709)" stroke-opacity="0.05" stroke-width="2.16035" stroke-miterlimit="10"/>
<path d="M-430.406 1101.1C-402.939 1054.65 -311.76 1046.61 -311.409 985.906C-311.127 935.083 -354.392 871.173 -355.68 819.876C-357.013 767.151 -299.62 735.322 -257.494 704.755C-216.935 675.316 -169.376 649.56 -133.843 617.124C-102.882 588.862 -129.377 541.821 -127.756 501.732C-126.75 476.896 -109.775 463.46 -80.8629 454.139C-45.6862 442.651 -15.4908 427.52 9.24481 408.988C53.4849 376.102 91.1227 332.352 96.945 280.02C104.234 214.752 79.0858 137.676 78.7724 69.651" stroke="url(#paint44_linear_312_709)" stroke-opacity="0.05" stroke-width="2.16035" stroke-miterlimit="10"/>
<path d="M-440.26 1096.38C-412.402 1049.7 -320.497 1041.88 -319.405 981.059C-318.495 930.526 -360.288 866.956 -360.516 816.102C-360.742 763.975 -303.877 732.363 -262.291 701.574C-222.49 672.119 -176.339 645.762 -143.252 612.32C-114.467 583.206 -137.855 536.337 -133.492 497.263C-130.803 473.044 -112.947 459.877 -84.2966 450.343C-49.8313 438.735 -20.6701 423.285 2.65843 404.273C45.0177 370.127 77.5782 325.011 83.5088 272.748C90.8069 208.094 71.892 133.6 70.8908 65.8758" stroke="url(#paint45_linear_312_709)" stroke-opacity="0.05" stroke-width="2.16035" stroke-miterlimit="10"/>
<path d="M-449.804 1091.81C-421.531 1044.9 -328.983 1037.25 -327.005 976.348C-325.438 926.129 -365.758 862.897 -364.877 812.51C-363.931 761.013 -307.678 729.587 -266.675 698.582C-227.659 669.08 -183.006 642.098 -152.368 607.7C-125.679 577.738 -145.916 531.07 -138.82 493.033C-134.425 469.468 -115.649 456.571 -87.2111 446.847C-53.501 435.097 -25.4254 419.308 -3.56351 399.803C36.7929 364.357 64.1873 317.849 70.2329 265.641C77.6672 201.548 64.9832 129.767 63.3606 62.3304" stroke="url(#paint46_linear_312_709)" stroke-opacity="0.05" stroke-width="2.16035" stroke-miterlimit="10"/>
<path d="M-459.004 1087.41C-430.312 1040.26 -336.966 1032.83 -334.22 971.803C-331.999 921.904 -370.787 859.014 -368.715 809.132C-366.653 758.255 -310.968 727.046 -270.559 695.766C-232.275 666.234 -189.258 638.578 -161.049 603.226C-136.414 572.365 -153.463 525.951 -143.596 488.917C-137.486 465.983 -117.772 453.445 -89.5106 443.416C-56.5662 431.516 -29.5989 415.375 -9.2397 395.372C77.5027 311.959 60.4079 181.553 56.3555 58.868" stroke="url(#paint47_linear_312_709)" stroke-opacity="0.05" stroke-width="2.16035" stroke-miterlimit="10"/>
<path d="M-467.905 1083.15C-438.759 1035.76 -344.713 1028.52 -341.094 967.394C-338.165 917.832 -375.409 855.298 -372.277 805.859C-369.098 755.603 -314.013 724.595 -274.255 693.111C-236.751 663.481 -195.366 635.189 -169.644 598.873C-147.033 567.055 -160.772 521.016 -148.22 484.951C-140.424 462.671 -119.668 450.444 -91.6349 440.173C-59.1247 428.382 -33.8973 411.429 -14.7441 391.138C64.4196 307.289 54.3877 175.693 49.5085 55.6307" stroke="url(#paint48_linear_312_709)" stroke-opacity="0.05" stroke-width="2.16035" stroke-miterlimit="10"/>
<path d="M-476.444 1079.06C-446.843 1031.44 -352.095 1024.37 -347.586 963.158C-344.013 913.894 -379.649 851.754 -375.376 802.798C-371.031 753.186 -316.583 722.37 -277.518 690.608C-240.838 660.843 -201.129 631.92 -177.728 594.718C-157.075 561.887 -167.636 516.248 -152.282 481.202C-142.8 459.575 -121.035 447.687 -93.16 437.155C-61.4418 425.163 -37.4898 407.796 -19.8137 387.049C13.8548 347.522 25.4545 296.696 32.0857 244.741C40.0371 182.399 46.3004 119.154 43.0237 52.5218" stroke="url(#paint49_linear_312_709)" stroke-opacity="0.05" stroke-width="2.16035" stroke-miterlimit="10"/>
<path d="M-484.639 1075.14C-454.888 1027.67 -360.035 1020.72 -353.825 960.379C-348.901 911.963 -382.432 850.738 -378.28 802.122C-374.079 752.981 -321.389 722.468 -283.22 690.723C-246.387 660.003 -207.19 629.783 -185.464 590.721C-166.172 556.047 -174.454 509.353 -154.543 475.072C-142.521 454.381 -117.924 444.082 -90.6995 432.842C-62.4201 421.166 -41.5005 404.575 -26.0528 385.075C6.82415 343.569 13.1206 289.861 20.2222 236.75C28.4244 175.447 40.7983 115.55 37.0751 49.642" stroke="url(#paint50_linear_312_709)" stroke-opacity="0.05" stroke-width="2.16035" stroke-miterlimit="10"/>
<path d="M-492.478 1071.39C-462.283 1023.71 -366.723 1016.88 -359.624 956.499C-353.973 908.421 -386.015 847.543 -380.698 799.403C-375.273 750.951 -323.199 720.587 -285.665 688.609C-249.481 657.811 -211.917 626.998 -192.822 586.939C-175.682 550.982 -180.293 505.091 -157.644 471.752C-144.08 451.761 -118.49 441.75 -91.5713 430.178C-64.0147 418.326 -44.2815 401.347 -30.1888 381.431C0.163143 338.535 1.04833 283.23 8.55743 230.322C17.1699 169.64 35.6715 112.672 31.4113 46.9595" stroke="url(#paint51_linear_312_709)" stroke-opacity="0.05" stroke-width="2.16035" stroke-miterlimit="10"/>
<path d="M-499.933 1067.82C-469.276 1019.89 -373.067 1013.27 -365.067 952.772C-358.753 904.992 -389.26 844.492 -382.798 796.827C-376.346 748.971 -324.653 718.859 -287.722 686.62C-252.281 655.733 -216.467 624.272 -199.871 583.278C-184.794 546.02 -185.833 500.973 -160.475 468.554C-145.369 449.262 -118.806 439.538 -92.2035 427.656C-65.3704 415.671 -46.8032 398.26 -34.0724 377.943C-6.29193 333.671 -10.6954 276.765 -2.79864 224.059C6.19818 163.967 30.826 110.017 26.0599 44.435" stroke="url(#paint52_linear_312_709)" stroke-opacity="0.05" stroke-width="2.16035" stroke-miterlimit="10"/>
<path d="M-507.01 1064.43C-475.971 1016.24 -379.035 1009.75 -370.153 949.224C-363.194 901.743 -392.249 841.581 -384.573 794.415C-376.896 747.25 -325.786 717.301 -289.514 684.881C-254.727 653.798 -220.596 621.764 -206.52 579.835C-193.543 541.186 -191 497.086 -162.966 465.57C-146.392 446.925 -118.798 437.533 -92.5006 425.276C-66.203 413.018 -48.9663 395.309 -37.5646 374.606C-12.447 329.065 -21.9484 270.455 -13.6812 217.987C-4.30274 158.449 26.452 107.472 21.0935 42.0327" stroke="url(#paint53_linear_312_709)" stroke-opacity="0.05" stroke-width="2.16035" stroke-miterlimit="10"/>
<path d="M-513.713 1061.23C-482.177 1012.84 -384.708 1006.42 -374.892 945.877C-367.298 898.672 -394.792 838.917 -386.069 792.18C-377.379 745.639 -326.597 715.871 -290.935 683.248C-256.794 651.998 -224.377 619.413 -212.761 576.55C-201.897 536.451 -195.821 493.363 -165.15 462.706C-147.211 444.792 -118.527 435.654 -92.5392 423.072C-67.042 410.716 -50.8244 392.521 -40.7325 371.476C-18.2613 324.674 -32.699 264.401 -24.1011 212.171C-14.3793 153.097 22.4447 105.172 16.4583 39.8229" stroke="url(#paint54_linear_312_709)" stroke-opacity="0.05" stroke-width="2.16035" stroke-miterlimit="10"/>
<path d="M-520.006 1058.22C-488.075 1009.6 -389.904 1003.35 -379.313 942.708C-371.068 895.787 -397.199 836.346 -387.268 790.122C-377.464 744.165 -327.122 714.727 -292.032 681.824C-258.554 650.355 -227.775 617.228 -218.602 573.483C-209.867 531.883 -200.29 489.871 -167.025 460.035C-147.791 442.747 -118.029 433.928 -92.3464 421.014C-67.4527 408.486 -52.4223 389.946 -43.5903 368.54C-23.767 320.564 -42.925 258.598 -34.0457 206.582C-24.0374 148.007 18.8523 103.142 12.1443 37.7407" stroke="url(#paint55_linear_312_709)" stroke-opacity="0.05" stroke-width="2.16035" stroke-miterlimit="10"/>
<path d="M-525.899 1055.39C-493.567 1006.57 -394.797 1000.42 -383.381 939.734C-374.616 893.034 -399.179 833.987 -388.301 788.188C-377.52 742.803 -327.395 713.695 -292.907 680.531C-260.038 648.86 -230.881 615.199 -224.1 570.588C-217.532 527.442 -204.51 486.497 -168.738 457.537C-148.199 440.898 -117.375 432.39 -91.9356 419.14C-67.725 406.436 -53.716 387.542 -46.1041 365.776C-28.9034 316.7 -52.5432 253.049 -43.4224 201.245C-33.1857 143.08 15.7102 101.273 8.27719 35.8268" stroke="url(#paint56_linear_312_709)" stroke-opacity="0.05" stroke-width="2.16035" stroke-miterlimit="10"/>
<path d="M-531.385 1052.77C-498.686 1003.76 -399.282 997.72 -387.125 936.966C-377.84 890.488 -401.001 831.843 -389.093 786.421C-377.327 741.594 -327.402 712.779 -293.471 679.43C-261.054 647.605 -233.6 613.371 -229.165 567.926C-224.787 523.196 -208.444 483.409 -170.2 455.229C-148.448 439.221 -116.553 431.003 -91.4093 417.443C-67.6742 404.637 -54.8215 385.333 -48.3811 363.274C-33.758 313.173 -61.5987 247.882 -52.3547 196.243C-41.941 138.384 12.9007 99.6767 4.60506 34.0937" stroke="url(#paint57_linear_312_709)" stroke-opacity="0.05" stroke-width="2.16035" stroke-miterlimit="10"/>
<path d="M-536.43 1050.35C-503.391 1001.1 -403.406 995.196 -390.563 934.398C-380.767 888.119 -402.583 829.824 -389.683 784.821C-376.979 740.521 -327.212 712.038 -293.759 678.505C-261.819 646.497 -235.967 611.73 -233.82 565.459C-231.674 519.187 -212.058 480.491 -171.438 453.082C-148.576 437.665 -115.868 429.604 -90.7351 415.898C-67.3359 403.161 -55.6693 383.257 -50.4176 360.941C-38.2015 309.922 -70.0349 243.02 -60.6712 191.553C-50.1997 133.996 10.5695 98.2998 1.29955 32.5178" stroke="url(#paint58_linear_312_709)" stroke-opacity="0.05" stroke-width="2.16035" stroke-miterlimit="10"/>
<path d="M-541.109 1048.07C-507.768 998.61 -407.213 992.86 -393.705 931.981C-383.44 885.943 -403.929 827.997 -390.101 783.374C-376.537 739.599 -326.803 711.437 -293.781 677.751C-262.295 645.554 -237.959 610.285 -238.056 563.219C-238.138 515.275 -215.47 477.75 -172.516 451.117C-148.607 436.252 -114.932 428.449 -89.9544 414.518C-66.9547 401.688 -56.3259 381.422 -52.0615 358.892C-47.4207 334.302 -50.4871 306.712 -55.1548 278.756C-60.166 248.601 -73.1654 213.833 -68.3079 187.223C-57.8531 129.87 8.74752 97.1749 -1.60487 31.1246" stroke="url(#paint59_linear_312_709)" stroke-opacity="0.05" stroke-width="2.16035" stroke-miterlimit="10"/>
<path d="M-545.219 1046.11C-511.623 996.454 -410.52 990.867 -396.434 929.874C-385.839 883.949 -405.143 826.312 -390.388 782.069C-376.016 738.758 -326.246 710.986 -293.586 677.171C-262.396 644.833 -239.579 609.026 -241.853 561.196C-244.214 511.643 -218.596 475.207 -173.371 449.311C-148.421 435.057 -113.927 427.441 -89.1123 413.3C-66.4791 400.393 -56.7826 379.797 -53.5151 357.03C-49.8975 332.006 -54.173 303.99 -59.836 275.71C-65.929 245.243 -80.1604 209.843 -75.3557 183.217C-65.0094 126.007 7.34746 96.2592 -4.26477 29.8474" stroke="url(#paint60_linear_312_709)" stroke-opacity="0.05" stroke-width="2.16035" stroke-miterlimit="10"/>
<path d="M-548.95 1044.33C-515.106 994.493 -413.471 989.018 -398.91 927.96C-388.006 882.147 -406.07 824.87 -390.558 780.944C-375.425 738.067 -325.443 710.74 -293.142 676.79C-262.261 644.296 -240.824 607.999 -245.26 559.413C-249.854 508.239 -221.502 472.884 -174.092 447.693C-148.26 433.957 -112.925 426.565 -88.2228 412.238C-65.9068 399.277 -57.0907 378.412 -54.6973 355.406C-52.0572 329.978 -57.4691 301.552 -64.0383 272.973C-71.1076 242.226 -86.443 206.265 -81.7369 179.592C-71.6504 122.462 6.4175 95.5863 -6.53945 28.737" stroke="url(#paint61_linear_312_709)" stroke-opacity="0.05" stroke-width="2.16035" stroke-miterlimit="10"/>
<path d="M-552.221 1042.77C-518.271 992.71 -416.043 987.43 -401.089 926.266C-389.914 880.521 -406.863 823.528 -390.607 779.903C-374.787 737.407 -324.486 710.551 -292.468 676.519C-261.811 643.9 -241.674 607.116 -248.143 557.844C-255.072 505.052 -224.207 470.771 -174.76 446.216C-148.058 432.983 -111.987 425.782 -87.3753 411.305C-65.304 398.307 -57.2454 377.17 -55.681 353.998C-53.9423 328.176 -60.3955 299.396 -67.7984 270.534C-75.7808 239.503 -92.0134 203.096 -87.4414 176.324C-77.6989 119.153 5.94507 95.0954 -8.56146 27.7729" stroke="url(#paint62_linear_312_709)" stroke-opacity="0.05" stroke-width="2.16035" stroke-miterlimit="10"/>
<path d="M-555.015 1041.44C-520.965 991.169 -418.207 986.089 -402.969 924.795C-391.609 879.129 -407.519 822.41 -390.671 779.024C-374.231 736.876 -323.517 710.552 -291.681 676.434C-261.161 643.723 -242.193 606.47 -250.655 556.514C-259.884 502.113 -226.773 468.876 -175.281 444.941C-147.819 432.186 -111.085 425.16 -86.5335 410.557C-64.6376 397.546 -57.2517 376.211 -56.4101 352.864C-55.4905 326.686 -62.876 297.576 -71.0434 268.457C-79.8301 237.166 -96.7797 200.444 -92.3577 173.521C-83.1106 116.247 6.04187 94.8942 -10.2341 26.9671" stroke="url(#paint63_linear_312_709)" stroke-opacity="0.05" stroke-width="2.16035" stroke-miterlimit="10"/>
<path d="M-557.35 1040.33C-523.427 990.323 -420.737 985.386 -404.865 924.793C-392.311 876.918 -409.878 816.48 -387.996 772.565C-369.292 735.018 -322.828 710.544 -292.805 678.959C-260.912 645.399 -243.144 607.193 -252.531 555.495C-262.863 498.206 -227.681 465.912 -171.603 442.173C-146.476 431.525 -115.815 424.586 -91.6581 413.307C-66.0985 401.37 -57.3899 379.039 -56.7406 354.528C-55.9921 326.721 -64.916 295.506 -74.3232 264.459C-83.8781 233.13 -100.913 196.544 -96.2733 169.884C-86.3826 113.545 6.52803 94.3379 -11.5695 26.3388" stroke="url(#paint64_linear_312_709)" stroke-opacity="0.05" stroke-width="2.16035" stroke-miterlimit="10"/>
<path d="M-559.19 1039.45C-525.31 989.239 -422.078 984.561 -406.15 923.809C-393.606 875.911 -410.192 815.702 -387.857 772.02C-368.755 734.698 -321.596 710.795 -291.566 679.24C-259.627 645.666 -242.783 607.029 -254.067 554.657C-266.791 495.696 -229.817 464.513 -171.786 441.289C-146.109 431.01 -115.226 424.114 -91.0293 412.793C-65.4738 400.907 -57.1386 378.513 -57.0539 353.875C-56.9534 325.776 -66.7567 294.248 -76.7209 263.016C-86.7826 231.48 -104.133 194.753 -99.7949 167.878C-90.557 111.343 7.49308 94.5148 -12.6999 25.7912" stroke="url(#paint65_linear_312_709)" stroke-opacity="0.05" stroke-width="2.16035" stroke-miterlimit="10"/>
<path d="M-560.506 1038.82C-526.706 988.441 -422.998 984.034 -407.159 923.045C-394.71 875.093 -410.463 815.167 -387.705 771.615C-368.298 734.456 -320.288 711.18 -290.166 679.686C-258.052 646.17 -241.986 607.091 -255.163 554.117C-270.218 493.532 -231.884 463.387 -172.073 440.577C-145.907 430.584 -114.774 423.755 -90.389 412.506C-64.7582 400.674 -56.6604 378.396 -57.0263 353.561C-57.9085 296.166 -110.126 220.229 -102.313 166.43C-94.0534 109.535 9.00959 94.9283 -13.4734 25.4228" stroke="url(#paint66_linear_312_709)" stroke-opacity="0.05" stroke-width="2.16035" stroke-miterlimit="10"/>
<path d="M-561.342 1038.43C-527.665 987.878 -423.471 983.721 -407.864 922.541C-395.625 874.48 -410.602 814.746 -387.592 771.342C-367.919 734.301 -318.935 711.692 -288.607 680.315C-256.288 646.877 -240.769 607.379 -255.742 553.815C-273.13 491.648 -233.871 462.484 -172.26 440.045C-145.805 430.376 -113.78 423.919 -89.9827 412.336C-64.7281 400.024 -56.1636 378.756 -56.8703 353.494C-58.5036 295.643 -110.897 219.906 -104.057 165.439C-96.8966 108.1 11.0562 95.5498 -13.9778 25.2176" stroke="url(#paint67_linear_312_709)" stroke-opacity="0.05" stroke-width="2.16035" stroke-miterlimit="10"/>
<path d="M-561.656 1038.28C-528.182 987.561 -423.532 983.718 -408.309 922.285C-396.366 874.083 -410.724 814.573 -387.525 771.152C-367.749 734.152 -317.519 712.314 -286.899 681.085C-254.268 647.796 -239.096 607.885 -255.835 553.752C-275.56 490.056 -235.823 461.792 -172.442 439.702C-114.565 419.51 -54.5155 408.768 -56.544 353.693C-58.6942 295.446 -110.572 220.193 -104.902 164.966C-98.9694 107.112 13.6014 96.4267 -14.0342 25.1199" stroke="url(#paint68_linear_312_709)" stroke-opacity="0.05" stroke-width="2.16035" stroke-miterlimit="10"/>
<defs>
<linearGradient id="paint0_linear_312_709" x1="357202" y1="-747016" x2="357135" y2="-747048" gradientUnits="userSpaceOnUse">
<stop stop-color="white"/>
<stop offset="1" stop-color="white"/>
</linearGradient>
<linearGradient id="paint1_linear_312_709" x1="358115" y1="-746556" x2="357349" y2="-746921" gradientUnits="userSpaceOnUse">
<stop stop-color="white"/>
<stop offset="1" stop-color="white"/>
</linearGradient>
<linearGradient id="paint2_linear_312_709" x1="358981" y1="-746168" x2="357568" y2="-746842" gradientUnits="userSpaceOnUse">
<stop stop-color="white"/>
<stop offset="1" stop-color="white"/>
</linearGradient>
<linearGradient id="paint3_linear_312_709" x1="360260" y1="-745558" x2="357891" y2="-746688" gradientUnits="userSpaceOnUse">
<stop stop-color="white"/>
<stop offset="1" stop-color="white"/>
</linearGradient>
<linearGradient id="paint4_linear_312_709" x1="362384" y1="-744546" x2="358439" y2="-746427" gradientUnits="userSpaceOnUse">
<stop stop-color="white"/>
<stop offset="1" stop-color="white"/>
</linearGradient>
<linearGradient id="paint5_linear_312_709" x1="364720" y1="-743433" x2="359044" y2="-746138" gradientUnits="userSpaceOnUse">
<stop stop-color="white"/>
<stop offset="1" stop-color="white"/>
</linearGradient>
<linearGradient id="paint6_linear_312_709" x1="367562" y1="-742077" x2="359784" y2="-745785" gradientUnits="userSpaceOnUse">
<stop stop-color="white"/>
<stop offset="1" stop-color="white"/>
</linearGradient>
<linearGradient id="paint7_linear_312_709" x1="370546" y1="-740642" x2="360559" y2="-745403" gradientUnits="userSpaceOnUse">
<stop stop-color="white"/>
<stop offset="1" stop-color="white"/>
</linearGradient>
<linearGradient id="paint8_linear_312_709" x1="373552" y1="-739229" x2="361349" y2="-745046" gradientUnits="userSpaceOnUse">
<stop stop-color="white"/>
<stop offset="1" stop-color="white"/>
</linearGradient>
<linearGradient id="paint9_linear_312_709" x1="376392" y1="-737850" x2="362082" y2="-744671" gradientUnits="userSpaceOnUse">
<stop stop-color="white"/>
<stop offset="1" stop-color="white"/>
</linearGradient>
<linearGradient id="paint10_linear_312_709" x1="379226" y1="-736518" x2="362826" y2="-744335" gradientUnits="userSpaceOnUse">
<stop stop-color="white"/>
<stop offset="1" stop-color="white"/>
</linearGradient>
<linearGradient id="paint11_linear_312_709" x1="381397" y1="-735483" x2="363389" y2="-744067" gradientUnits="userSpaceOnUse">
<stop stop-color="white"/>
<stop offset="1" stop-color="white"/>
</linearGradient>
<linearGradient id="paint12_linear_312_709" x1="383005" y1="-734716" x2="363803" y2="-743870" gradientUnits="userSpaceOnUse">
<stop stop-color="white"/>
<stop offset="1" stop-color="white"/>
</linearGradient>
<linearGradient id="paint13_linear_312_709" x1="383873" y1="-734328" x2="364026" y2="-743789" gradientUnits="userSpaceOnUse">
<stop stop-color="white"/>
<stop offset="1" stop-color="white"/>
</linearGradient>
<linearGradient id="paint14_linear_312_709" x1="384243" y1="-734126" x2="364102" y2="-743727" gradientUnits="userSpaceOnUse">
<stop stop-color="white"/>
<stop offset="1" stop-color="white"/>
</linearGradient>
<linearGradient id="paint15_linear_312_709" x1="384620" y1="-733927" x2="364182" y2="-743670" gradientUnits="userSpaceOnUse">
<stop stop-color="white"/>
<stop offset="1" stop-color="white"/>
</linearGradient>
<linearGradient id="paint16_linear_312_709" x1="384840" y1="-733829" x2="364228" y2="-743654" gradientUnits="userSpaceOnUse">
<stop stop-color="white"/>
<stop offset="1" stop-color="white"/>
</linearGradient>
<linearGradient id="paint17_linear_312_709" x1="384914" y1="-733826" x2="364244" y2="-743679" gradientUnits="userSpaceOnUse">
<stop stop-color="white"/>
<stop offset="1" stop-color="white"/>
</linearGradient>
<linearGradient id="paint18_linear_312_709" x1="384831" y1="-733846" x2="364204" y2="-743679" gradientUnits="userSpaceOnUse">
<stop stop-color="white"/>
<stop offset="1" stop-color="white"/>
</linearGradient>
<linearGradient id="paint19_linear_312_709" x1="384632" y1="-733941" x2="364139" y2="-743709" gradientUnits="userSpaceOnUse">
<stop stop-color="white"/>
<stop offset="1" stop-color="white"/>
</linearGradient>
<linearGradient id="paint20_linear_312_709" x1="384180" y1="-734163" x2="364010" y2="-743777" gradientUnits="userSpaceOnUse">
<stop stop-color="white"/>
<stop offset="1" stop-color="white"/>
</linearGradient>
<linearGradient id="paint21_linear_312_709" x1="383878" y1="-734313" x2="363921" y2="-743826" gradientUnits="userSpaceOnUse">
<stop stop-color="white"/>
<stop offset="1" stop-color="white"/>
</linearGradient>
<linearGradient id="paint22_linear_312_709" x1="383496" y1="-734457" x2="363799" y2="-743846" gradientUnits="userSpaceOnUse">
<stop stop-color="white"/>
<stop offset="1" stop-color="white"/>
</linearGradient>
<linearGradient id="paint23_linear_312_709" x1="383115" y1="-734664" x2="363695" y2="-743921" gradientUnits="userSpaceOnUse">
<stop stop-color="white"/>
<stop offset="1" stop-color="white"/>
</linearGradient>
<linearGradient id="paint24_linear_312_709" x1="382713" y1="-734881" x2="363586" y2="-743999" gradientUnits="userSpaceOnUse">
<stop stop-color="white"/>
<stop offset="1" stop-color="white"/>
</linearGradient>
<linearGradient id="paint25_linear_312_709" x1="382280" y1="-735050" x2="363451" y2="-744025" gradientUnits="userSpaceOnUse">
<stop stop-color="white"/>
<stop offset="1" stop-color="white"/>
</linearGradient>
<linearGradient id="paint26_linear_312_709" x1="381741" y1="-735319" x2="363303" y2="-744108" gradientUnits="userSpaceOnUse">
<stop stop-color="white"/>
<stop offset="1" stop-color="white"/>
</linearGradient>
<linearGradient id="paint27_linear_312_709" x1="381341" y1="-735484" x2="363180" y2="-744141" gradientUnits="userSpaceOnUse">
<stop stop-color="white"/>
<stop offset="1" stop-color="white"/>
</linearGradient>
<linearGradient id="paint28_linear_312_709" x1="380997" y1="-735655" x2="363082" y2="-744195" gradientUnits="userSpaceOnUse">
<stop stop-color="white"/>
<stop offset="1" stop-color="white"/>
</linearGradient>
<linearGradient id="paint29_linear_312_709" x1="380721" y1="-735780" x2="362998" y2="-744228" gradientUnits="userSpaceOnUse">
<stop stop-color="white"/>
<stop offset="1" stop-color="white"/>
</linearGradient>
<linearGradient id="paint30_linear_312_709" x1="380506" y1="-735933" x2="362946" y2="-744304" gradientUnits="userSpaceOnUse">
<stop stop-color="white"/>
<stop offset="1" stop-color="white"/>
</linearGradient>
<linearGradient id="paint31_linear_312_709" x1="380379" y1="-735968" x2="362896" y2="-744302" gradientUnits="userSpaceOnUse">
<stop stop-color="white"/>
<stop offset="1" stop-color="white"/>
</linearGradient>
<linearGradient id="paint32_linear_312_709" x1="380323" y1="-735995" x2="362871" y2="-744314" gradientUnits="userSpaceOnUse">
<stop stop-color="white"/>
<stop offset="1" stop-color="white"/>
</linearGradient>
<linearGradient id="paint33_linear_312_709" x1="380177" y1="-736084" x2="362828" y2="-744354" gradientUnits="userSpaceOnUse">
<stop stop-color="white"/>
<stop offset="1" stop-color="white"/>
</linearGradient>
<linearGradient id="paint34_linear_312_709" x1="379938" y1="-736179" x2="362750" y2="-744372" gradientUnits="userSpaceOnUse">
<stop stop-color="white"/>
<stop offset="1" stop-color="white"/>
</linearGradient>
<linearGradient id="paint35_linear_312_709" x1="379607" y1="-736356" x2="362659" y2="-744435" gradientUnits="userSpaceOnUse">
<stop stop-color="white"/>
<stop offset="1" stop-color="white"/>
</linearGradient>
<linearGradient id="paint36_linear_312_709" x1="379195" y1="-736533" x2="362535" y2="-744475" gradientUnits="userSpaceOnUse">
<stop stop-color="white"/>
<stop offset="1" stop-color="white"/>
</linearGradient>
<linearGradient id="paint37_linear_312_709" x1="378719" y1="-736779" x2="362405" y2="-744556" gradientUnits="userSpaceOnUse">
<stop stop-color="white"/>
<stop offset="1" stop-color="white"/>
</linearGradient>
<linearGradient id="paint38_linear_312_709" x1="378169" y1="-737016" x2="362243" y2="-744607" gradientUnits="userSpaceOnUse">
<stop stop-color="white"/>
<stop offset="1" stop-color="white"/>
</linearGradient>
<linearGradient id="paint39_linear_312_709" x1="377561" y1="-737312" x2="362075" y2="-744694" gradientUnits="userSpaceOnUse">
<stop stop-color="white"/>
<stop offset="1" stop-color="white"/>
</linearGradient>
<linearGradient id="paint40_linear_312_709" x1="376878" y1="-737625" x2="361881" y2="-744773" gradientUnits="userSpaceOnUse">
<stop stop-color="white"/>
<stop offset="1" stop-color="white"/>
</linearGradient>
<linearGradient id="paint41_linear_312_709" x1="376184" y1="-737968" x2="361692" y2="-744876" gradientUnits="userSpaceOnUse">
<stop stop-color="white"/>
<stop offset="1" stop-color="white"/>
</linearGradient>
<linearGradient id="paint42_linear_312_709" x1="375428" y1="-738329" x2="361484" y2="-744976" gradientUnits="userSpaceOnUse">
<stop stop-color="white"/>
<stop offset="1" stop-color="white"/>
</linearGradient>
<linearGradient id="paint43_linear_312_709" x1="374666" y1="-738692" x2="361274" y2="-745076" gradientUnits="userSpaceOnUse">
<stop stop-color="white"/>
<stop offset="1" stop-color="white"/>
</linearGradient>
<linearGradient id="paint44_linear_312_709" x1="373865" y1="-739074" x2="361053" y2="-745181" gradientUnits="userSpaceOnUse">
<stop stop-color="white"/>
<stop offset="1" stop-color="white"/>
</linearGradient>
<linearGradient id="paint45_linear_312_709" x1="373067" y1="-739454" x2="360835" y2="-745285" gradientUnits="userSpaceOnUse">
<stop stop-color="white"/>
<stop offset="1" stop-color="white"/>
</linearGradient>
<linearGradient id="paint46_linear_312_709" x1="372269" y1="-739790" x2="360603" y2="-745351" gradientUnits="userSpaceOnUse">
<stop stop-color="white"/>
<stop offset="1" stop-color="white"/>
</linearGradient>
<linearGradient id="paint47_linear_312_709" x1="371462" y1="-740251" x2="360404" y2="-745522" gradientUnits="userSpaceOnUse">
<stop stop-color="white"/>
<stop offset="1" stop-color="white"/>
</linearGradient>
<linearGradient id="paint48_linear_312_709" x1="370934" y1="-740471" x2="360250" y2="-745564" gradientUnits="userSpaceOnUse">
<stop stop-color="white"/>
<stop offset="1" stop-color="white"/>
</linearGradient>
<linearGradient id="paint49_linear_312_709" x1="370299" y1="-740774" x2="360076" y2="-745647" gradientUnits="userSpaceOnUse">
<stop stop-color="white"/>
<stop offset="1" stop-color="white"/>
</linearGradient>
<linearGradient id="paint50_linear_312_709" x1="369801" y1="-741030" x2="359945" y2="-745729" gradientUnits="userSpaceOnUse">
<stop stop-color="white"/>
<stop offset="1" stop-color="white"/>
</linearGradient>
<linearGradient id="paint51_linear_312_709" x1="369385" y1="-741209" x2="359826" y2="-745766" gradientUnits="userSpaceOnUse">
<stop stop-color="white"/>
<stop offset="1" stop-color="white"/>
</linearGradient>
<linearGradient id="paint52_linear_312_709" x1="369033" y1="-741345" x2="359720" y2="-745785" gradientUnits="userSpaceOnUse">
<stop stop-color="white"/>
<stop offset="1" stop-color="white"/>
</linearGradient>
<linearGradient id="paint53_linear_312_709" x1="368749" y1="-741494" x2="359645" y2="-745833" gradientUnits="userSpaceOnUse">
<stop stop-color="white"/>
<stop offset="1" stop-color="white"/>
</linearGradient>
<linearGradient id="paint54_linear_312_709" x1="368512" y1="-741600" x2="359578" y2="-745859" gradientUnits="userSpaceOnUse">
<stop stop-color="white"/>
<stop offset="1" stop-color="white"/>
</linearGradient>
<linearGradient id="paint55_linear_312_709" x1="368524" y1="-741607" x2="359583" y2="-745869" gradientUnits="userSpaceOnUse">
<stop stop-color="white"/>
<stop offset="1" stop-color="white"/>
</linearGradient>
<linearGradient id="paint56_linear_312_709" x1="368859" y1="-741486" x2="359680" y2="-745861" gradientUnits="userSpaceOnUse">
<stop stop-color="white"/>
<stop offset="1" stop-color="white"/>
</linearGradient>
<linearGradient id="paint57_linear_312_709" x1="369183" y1="-741312" x2="359758" y2="-745805" gradientUnits="userSpaceOnUse">
<stop stop-color="white"/>
<stop offset="1" stop-color="white"/>
</linearGradient>
<linearGradient id="paint58_linear_312_709" x1="369518" y1="-741146" x2="359843" y2="-745758" gradientUnits="userSpaceOnUse">
<stop stop-color="white"/>
<stop offset="1" stop-color="white"/>
</linearGradient>
<linearGradient id="paint59_linear_312_709" x1="369853" y1="-740955" x2="359921" y2="-745689" gradientUnits="userSpaceOnUse">
<stop stop-color="white"/>
<stop offset="1" stop-color="white"/>
</linearGradient>
<linearGradient id="paint60_linear_312_709" x1="370178" y1="-740806" x2="360007" y2="-745654" gradientUnits="userSpaceOnUse">
<stop stop-color="white"/>
<stop offset="1" stop-color="white"/>
</linearGradient>
<linearGradient id="paint61_linear_312_709" x1="370500" y1="-740672" x2="360097" y2="-745631" gradientUnits="userSpaceOnUse">
<stop stop-color="white"/>
<stop offset="1" stop-color="white"/>
</linearGradient>
<linearGradient id="paint62_linear_312_709" x1="370790" y1="-740534" x2="360173" y2="-745595" gradientUnits="userSpaceOnUse">
<stop stop-color="white"/>
<stop offset="1" stop-color="white"/>
</linearGradient>
<linearGradient id="paint63_linear_312_709" x1="371059" y1="-740412" x2="360245" y2="-745566" gradientUnits="userSpaceOnUse">
<stop stop-color="white"/>
<stop offset="1" stop-color="white"/>
</linearGradient>
<linearGradient id="paint64_linear_312_709" x1="371312" y1="-740285" x2="360310" y2="-745529" gradientUnits="userSpaceOnUse">
<stop stop-color="white"/>
<stop offset="1" stop-color="white"/>
</linearGradient>
<linearGradient id="paint65_linear_312_709" x1="371507" y1="-740198" x2="360363" y2="-745510" gradientUnits="userSpaceOnUse">
<stop stop-color="white"/>
<stop offset="1" stop-color="white"/>
</linearGradient>
<linearGradient id="paint66_linear_312_709" x1="371674" y1="-740119" x2="360407" y2="-745489" gradientUnits="userSpaceOnUse">
<stop stop-color="white"/>
<stop offset="1" stop-color="white"/>
</linearGradient>
<linearGradient id="paint67_linear_312_709" x1="371766" y1="-740049" x2="360424" y2="-745456" gradientUnits="userSpaceOnUse">
<stop stop-color="white"/>
<stop offset="1" stop-color="white"/>
</linearGradient>
<linearGradient id="paint68_linear_312_709" x1="371701" y1="-740131" x2="360421" y2="-745508" gradientUnits="userSpaceOnUse">
<stop stop-color="white"/>
<stop offset="1" stop-color="white"/>
</linearGradient>
</defs>
</svg>
